<svg width="51" height="51" viewBox="0 0 51 51" fill="none" xmlns="http://www.w3.org/2000/svg">
<path d="M50.9862 3.77226C50.9862 14.0223 50.9862 24.2823 50.9862 34.5323C50.9662 34.5523 50.9362 34.5823 50.9262 34.6023C50.5162 36.8323 48.5362 38.3023 46.1562 38.2623C41.5862 38.1923 37.0162 38.2423 32.4462 38.2423C32.2562 38.2423 32.0662 38.2423 31.8762 38.2423C31.8762 39.2823 31.8762 40.2623 31.8762 41.2123C32.4062 41.2923 32.9162 41.3223 33.3962 41.4323C36.5662 42.1823 38.6962 44.5623 39.1362 47.8023C39.2962 49.0123 39.0762 49.5023 38.0862 50.0523C30.0162 50.0523 21.9462 50.0523 13.8762 50.0523C13.0362 49.6823 12.7662 49.0423 12.7962 48.1423C12.8962 45.4623 14.8462 42.7223 17.4562 41.7723C18.2962 41.4723 19.1962 41.3423 20.0862 41.1223C20.0862 40.2123 20.0862 39.2323 20.0862 38.2323C19.8562 38.2323 19.6562 38.2323 19.4662 38.2323C14.8262 38.2323 10.1962 38.2323 5.55623 38.2323C2.90623 38.2423 0.996229 36.3523 0.996229 33.7123C0.996229 23.9923 0.986229 14.2823 1.01623 4.56226C1.01623 3.88226 1.17623 3.15226 1.46623 2.55226C2.26623 0.872256 3.68623 0.0622559 5.54623 0.0622559C19.1762 0.0622559 32.8162 0.0622559 46.4462 0.0622559C46.5462 0.0622559 46.6462 0.0622559 46.7362 0.0622559C48.0162 0.122256 49.0762 0.642257 49.9362 1.60226C50.4962 2.24226 50.7362 3.00226 50.9862 3.77226ZM3.92623 29.4223C18.6662 29.4223 33.3462 29.4223 48.0562 29.4223C48.0562 29.2123 48.0562 29.0323 48.0562 28.8523C48.0562 20.8623 48.0562 12.8723 48.0562 4.88226C48.0562 3.51226 47.5262 2.99226 46.1762 2.99226C32.7162 2.99226 19.2662 2.99226 5.80623 2.99226C4.44623 2.99226 3.92623 3.52226 3.92623 4.88226C3.92623 12.8723 3.92623 20.8623 3.92623 28.8523C3.92623 29.0323 3.92623 29.2123 3.92623 29.4223ZM3.94623 32.4123C3.94623 32.9323 3.89623 33.4423 3.95623 33.9323C4.05623 34.8023 4.62623 35.2723 5.50623 35.3223C5.61623 35.3323 5.73623 35.3223 5.84623 35.3223C19.2862 35.3223 32.7162 35.3223 46.1562 35.3223C46.3162 35.3223 46.4862 35.3323 46.6462 35.3123C47.2762 35.2423 47.8062 34.9523 47.9462 34.3123C48.0862 33.6923 48.0562 33.0423 48.0962 32.4123C33.3062 32.4123 18.6462 32.4123 3.94623 32.4123ZM35.9362 47.1223C35.9062 47.0223 35.8862 46.9523 35.8562 46.8823C35.2062 45.2623 33.5962 44.2223 31.6862 44.2123C27.8962 44.2023 24.1062 44.2023 20.3162 44.2123C19.3762 44.2123 18.4762 44.4323 17.6962 44.9823C16.9262 45.5223 16.3562 46.2023 16.0362 47.1323C22.7062 47.1223 29.3062 47.1223 35.9362 47.1223ZM28.8962 38.2823C26.9362 38.2823 25.0062 38.2823 23.0962 38.2823C23.0962 39.3023 23.0962 40.2823 23.0962 41.2523C25.0462 41.2523 26.9562 41.2523 28.8962 41.2523C28.8962 40.2523 28.8962 39.2823 28.8962 38.2823Z" fill="#202124"/>
<path d="M36.4262 19.9923C36.0162 20.5023 35.6562 20.9623 35.2662 21.4023C34.5162 22.2823 33.5662 22.2723 32.8162 21.3923C32.4362 20.9523 32.0762 20.4923 31.6662 19.9923C31.2762 20.4623 30.9062 20.9123 30.5462 21.3623C30.1762 21.8323 29.7162 22.0523 29.1162 22.0423C28.0962 22.0223 27.0662 22.0423 26.0362 22.0323C25.7462 22.0323 25.5662 22.1123 25.3862 22.3423C23.0862 25.2723 20.0462 26.7123 16.3562 26.3823C12.2162 26.0223 9.21622 23.8023 7.68622 19.9423C5.46622 14.3623 8.35622 8.35226 14.0462 6.41226C17.9262 5.09226 22.5762 6.45226 25.1162 9.69226C25.4862 10.1623 25.8462 10.3423 26.4462 10.3323C31.0862 10.3023 35.7162 10.3223 40.3562 10.3023C41.0962 10.3023 41.6162 10.5623 42.0262 11.1823C42.8862 12.5023 43.7562 13.8223 44.6462 15.1223C45.1462 15.8523 45.1362 16.5123 44.6362 17.2323C43.7462 18.5323 42.8762 19.8523 42.0162 21.1723C41.6262 21.7723 41.1162 22.0823 40.3862 22.0323C39.8962 22.0023 39.4062 22.0123 38.9262 22.0323C38.3562 22.0523 37.9262 21.8223 37.5762 21.3923C37.2062 20.9423 36.8362 20.4923 36.4262 19.9923ZM34.0462 18.2223C34.4262 17.7523 34.7962 17.3023 35.1662 16.8523C35.9262 15.9323 36.9262 15.9223 37.6862 16.8423C38.2362 17.5123 38.7762 18.1823 39.3162 18.8523C39.6162 19.2223 39.7562 19.2223 40.0162 18.8423C40.5562 18.0523 41.0962 17.2523 41.5962 16.4423C41.6762 16.3123 41.6762 16.0323 41.5962 15.9023C41.1262 15.1423 40.6062 14.4223 40.1262 13.6623C39.9362 13.3523 39.7162 13.2423 39.3462 13.2423C34.5662 13.2523 29.7862 13.2423 25.0062 13.2623C24.3662 13.2623 23.8762 13.0423 23.5262 12.5023C23.4162 12.3223 23.2862 12.1523 23.1762 11.9723C21.6462 9.70226 18.5562 8.44226 15.8662 9.00226C11.9862 9.80226 9.53622 13.1723 9.97622 17.1123C10.4662 21.5823 15.1762 24.5723 19.4362 23.1323C21.0862 22.5723 22.4162 21.6123 23.3362 20.1323C23.8062 19.3823 24.3962 19.0623 25.2762 19.1023C26.2662 19.1523 27.2562 19.1223 28.2562 19.1023C28.4462 19.0923 28.6862 18.9823 28.8162 18.8323C29.3662 18.1923 29.8862 17.5223 30.4162 16.8623C31.1862 15.9223 32.1862 15.9223 32.9662 16.8723C33.3062 17.3123 33.6662 17.7523 34.0462 18.2223Z" fill="#202124"/>
<path d="M21.5963 16.2022C21.5863 18.6222 19.5963 20.5922 17.1663 20.5722C14.7463 20.5522 12.7863 18.5522 12.8063 16.1322C12.8263 13.7322 14.8063 11.7822 17.2063 11.7822C19.6363 11.7922 21.6063 13.7722 21.5963 16.2022ZM17.1863 17.6322C17.9563 17.6422 18.6563 16.9622 18.6663 16.1822C18.6763 15.4222 18.0163 14.7522 17.2463 14.7122C16.4763 14.6822 15.7663 15.3522 15.7463 16.1422C15.7263 16.9122 16.4063 17.6222 17.1863 17.6322Z" fill="#202124"/>
</svg>
