<svg width="71" height="71" viewBox="0 0 71 71" fill="none" xmlns="http://www.w3.org/2000/svg">
<path d="M25.6706 0.5C26.8608 0.5 28.0393 0.5 29.2295 0.5C29.5446 0.558343 29.8479 0.616685 30.163 0.66336C36.184 1.67853 40.8281 4.7707 44.0953 9.91656C44.3637 10.3366 44.6087 10.4883 45.1105 10.5C49.0078 10.535 52.3217 11.9819 55.0638 14.7474C56.6274 16.3226 57.7009 18.2013 58.401 20.2666C59.2412 20.325 60.0463 20.3366 60.8281 20.4533C65.6823 21.1768 69.4512 25.1441 69.9646 30.0449C70.4664 34.8641 67.5492 39.5665 62.9635 41.2351C62.4267 41.4335 62.3217 41.7019 62.3217 42.2153C62.3334 50.8734 62.3334 59.5315 62.3334 68.1896C62.3334 69.7065 61.5399 70.5 60.023 70.5C43.4302 70.5 26.8374 70.5 10.2563 70.5C8.69274 70.5 7.92261 69.7182 7.92261 68.143C7.92261 59.1465 7.92262 50.1383 7.93428 41.1418C7.93428 40.605 7.78259 40.3016 7.30418 40.0216C3.13848 37.5478 0.781423 33.8722 0.30301 29.0764C-0.268752 23.2771 2.89344 17.8046 8.10931 15.1791C8.38936 15.0391 8.64607 14.7007 8.75108 14.409C11.1548 7.43115 15.8689 2.9154 23.0335 1.02508C23.8736 0.80338 24.7721 0.675029 25.6706 0.5ZM7.71258 35.4008C7.77092 35.3658 7.82927 35.3425 7.88761 35.3075C7.88761 33.9539 7.88761 32.5887 7.88761 31.2351C7.88761 29.9399 8.72775 29.0881 10.0113 29.0881C26.7324 29.0881 43.4535 29.0881 60.1863 29.0881C61.4699 29.0881 62.31 29.9399 62.31 31.2351C62.3217 32.9387 62.31 34.654 62.31 36.3576C62.31 36.5443 62.3334 36.731 62.345 36.9527C64.9238 35.7275 66.3707 32.4487 65.6472 29.5782C64.7254 25.9492 61.2365 23.8139 57.5842 24.6424C56.044 24.9924 55.0755 24.374 54.7604 22.8104C54.0953 19.6132 52.38 17.1861 49.4512 15.6809C47.6893 14.7824 45.8106 14.4206 43.8269 14.6774C42.5667 14.8407 41.8549 14.4673 41.2598 13.3471C40.9798 12.822 40.7231 12.2853 40.3847 11.8069C36.7441 6.53268 31.7499 4.00058 25.3439 4.78238C19.1595 5.52917 14.037 10.22 12.52 16.2876C12.2167 17.5245 11.5866 18.2246 10.408 18.703C4.59706 21.0718 2.49671 28.4347 6.13732 33.5688C6.61573 34.2223 7.18749 34.794 7.71258 35.4008ZM12.0183 66.3693C27.4442 66.3693 42.8001 66.3693 58.1677 66.3693C58.1677 61.5035 58.1677 56.6844 58.1677 51.8302C42.7651 51.8302 27.4092 51.8302 12.0183 51.8302C12.0183 56.6844 12.0183 61.5035 12.0183 66.3693ZM12.0416 33.2071C12.0416 38.0613 12.0416 42.8454 12.0416 47.6412C27.4442 47.6412 42.7884 47.6412 58.1677 47.6412C58.1677 42.8221 58.1677 38.0263 58.1677 33.2071C42.7768 33.2071 27.4325 33.2071 12.0416 33.2071Z" fill="#4D4E50"/>
<path d="M24.1653 57.5245C25.939 57.5245 27.7126 57.5245 29.4862 57.5245C30.7231 57.5245 31.6683 58.4347 31.6566 59.5899C31.6449 60.7451 30.7114 61.6202 29.4629 61.6202C25.9156 61.6202 22.3684 61.6202 18.8211 61.6202C17.5492 61.6202 16.6507 60.7801 16.6507 59.5899C16.6391 58.3647 17.5376 57.5245 18.8561 57.5245C20.6181 57.5245 22.3917 57.5245 24.1653 57.5245Z" fill="#4D4E50"/>
<path d="M42.7652 61.6319C41.5983 61.6319 40.6999 60.7217 40.7115 59.5432C40.7232 58.4113 41.6217 57.5245 42.7535 57.5245C43.9204 57.5245 44.8189 58.4347 44.8072 59.6015C44.7955 60.7451 43.8971 61.6202 42.7652 61.6319Z" fill="#4D4E50"/>
<path d="M53.5585 59.5899C53.5585 60.7567 52.6367 61.6436 51.4582 61.6319C50.3263 61.6202 49.4512 60.7101 49.4512 59.5665C49.4512 58.3997 50.373 57.5129 51.5515 57.5245C52.6834 57.5479 53.5585 58.4464 53.5585 59.5899Z" fill="#4D4E50"/>
<path d="M24.1653 43.032C22.3684 43.032 20.5714 43.032 18.7744 43.032C17.5259 43.032 16.6391 42.1569 16.6507 40.955C16.6624 39.7998 17.5376 38.9364 18.7628 38.9364C22.3567 38.9247 25.9506 38.9247 29.5446 38.9364C30.7348 38.9364 31.6566 39.8465 31.6683 40.9784C31.6799 42.0986 30.7464 43.032 29.5679 43.032C27.7593 43.032 25.9623 43.032 24.1653 43.032Z" fill="#4D4E50"/>
<path d="M44.8072 40.955C44.8188 42.1219 43.9087 43.032 42.7418 43.032C41.61 43.032 40.7115 42.1336 40.6998 41.0017C40.6882 39.8348 41.5866 38.9247 42.7652 38.9247C43.9087 38.9364 44.7955 39.8232 44.8072 40.955Z" fill="#4D4E50"/>
<path d="M53.5587 41.0017C53.547 42.1686 52.6252 43.0554 51.4583 43.032C50.3265 43.0087 49.4513 42.1102 49.463 40.9667C49.4747 39.8115 50.3965 38.913 51.5634 38.9364C52.6952 38.948 53.5704 39.8582 53.5587 41.0017Z" fill="#4D4E50"/>
</svg>
