<svg width="71" height="71" viewBox="0 0 71 71" fill="none" xmlns="http://www.w3.org/2000/svg">
<path d="M53.4179 70.5C41.3878 70.5 29.346 70.5 17.3159 70.5C16.0791 69.8116 15.6007 68.9714 15.8457 67.968C16.1141 66.9061 16.9192 66.4044 18.3894 66.4044C23.1034 66.4044 27.8174 66.4044 32.5315 66.4044C32.7765 66.4044 33.0215 66.4044 33.2666 66.4044C33.2666 63.3123 33.2666 60.2902 33.2666 57.2447C32.9749 57.2447 32.7298 57.2447 32.4731 57.2447C29.0543 57.2447 25.6355 57.2447 22.2166 57.2447C21.9016 57.2447 21.5749 57.2447 21.2715 57.1747C19.2645 56.7313 17.9927 55.1211 17.9927 53.0441C17.9927 51.1888 17.9927 49.3219 17.9927 47.4666C16.5225 47.3966 15.0989 47.455 13.7104 47.2566C7.51446 46.3348 3.31386 42.8926 1.14354 37.0118C0.770151 36.0083 0.606802 34.9114 0.350098 33.8613C0.350098 32.7645 0.350098 31.6793 0.350098 30.5825C0.443445 30.1391 0.548449 29.7074 0.630127 29.264C1.85531 22.5196 8.29625 17.0938 15.1456 17.0472C16.0674 17.0355 17.0008 17.0472 17.981 17.0472C17.981 17.0122 18.0043 16.8838 18.016 16.7555C18.3777 12.6715 19.8596 9.06601 22.695 6.10224C26.954 1.64492 32.1697 -0.268697 38.284 0.781457C43.9198 1.74993 48.027 4.94707 50.7458 9.94114C50.9791 10.3612 51.2126 10.4895 51.6793 10.5129C52.7645 10.5479 53.8613 10.6062 54.9347 10.7696C64.5612 12.2865 71.4105 21.3528 70.2203 31.0609C69.4502 37.3501 66.1714 42.0058 60.6989 45.1329C58.2486 46.5332 55.5765 47.2099 52.706 47.42C52.706 47.665 52.706 47.8867 52.706 48.12C52.706 49.7653 52.706 51.3989 52.706 53.0441C52.706 55.5061 50.9558 57.2564 48.4938 57.2564C45.0516 57.2564 41.6095 57.2564 38.1673 57.2564C37.9223 57.2564 37.6772 57.2564 37.4322 57.2564C37.4322 60.3485 37.4322 63.3706 37.4322 66.4161C37.7472 66.4161 38.0273 66.4161 38.2956 66.4161C43.1263 66.4161 47.957 66.4161 52.7877 66.4161C54.1529 66.4161 55.1214 67.5712 54.8647 68.8664C54.7364 69.6832 54.1413 70.1616 53.4179 70.5ZM52.7528 43.2427C53.2545 43.1727 53.7796 43.1377 54.293 43.0326C59.8471 41.9241 63.7094 38.7387 65.4946 33.3829C67.2682 28.0855 66.1131 23.2431 62.3208 19.1591C59.2404 15.8337 55.3198 14.3168 50.7808 14.6318C48.7972 14.7718 48.3071 14.5851 47.537 12.7532C45.285 7.39743 39.7775 4.11861 34.0134 4.70203C26.849 5.42547 21.3882 12.1231 22.2166 19.2642C22.45 21.3295 20.6997 22.3563 19.1828 21.7495C17.2809 20.9911 15.2856 20.9794 13.2786 21.3995C7.52613 22.6013 3.55888 28.3888 4.63237 34.0597C5.7292 39.8822 10.875 44.0711 18.0277 43.2193C18.4594 42.5076 18.5294 41.8075 18.156 41.049C18.0043 40.7456 18.016 40.3372 18.016 39.9755C18.0043 36.9651 18.0043 33.9663 18.016 30.9559C18.0277 28.6805 19.8129 26.8836 22.0999 26.8836C30.9679 26.8836 39.8242 26.8836 48.6922 26.8836C50.9559 26.8836 52.7411 28.6922 52.7528 30.9675C52.7644 33.978 52.7644 36.9767 52.7528 39.9872C52.7528 40.3722 52.7528 40.804 52.5894 41.119C52.2043 41.8658 52.2744 42.5076 52.7528 43.2427ZM39.8826 31.0375C33.9083 31.0375 28.0275 31.0375 22.1583 31.0375C22.1583 34.0597 22.1583 37.0234 22.1583 39.9755C31.0029 39.9755 39.7892 39.9755 48.5872 39.9755C48.5872 36.9651 48.5872 34.0013 48.5872 31.0375C47.0353 31.0375 45.5184 31.0375 43.9781 31.0375C43.9781 31.8193 43.9898 32.5428 43.9781 33.2779C43.9665 34.4914 43.0914 35.3665 41.9245 35.3665C40.7577 35.3665 39.8942 34.4797 39.8826 33.2662C39.8826 32.5428 39.8826 31.8193 39.8826 31.0375ZM22.1349 53.0908C30.9912 53.0908 39.7892 53.0908 48.5755 53.0908C48.5755 50.0687 48.5755 47.1049 48.5755 44.1528C47.0236 44.1528 45.53 44.1528 43.9781 44.1528C43.9781 44.8879 43.9781 45.5997 43.9781 46.2998C43.9665 47.5833 43.1497 48.4818 41.9595 48.4934C40.7343 48.5051 39.8825 47.6183 39.8709 46.2998C39.8709 45.5763 39.8709 44.8646 39.8709 44.1528C33.8967 44.1528 28.0275 44.1528 22.1233 44.1528C22.135 47.1399 22.1349 50.092 22.1349 53.0908Z" fill="#4D4E50"/>
</svg>
