<svg width="35" height="36" viewBox="0 0 35 36" fill="none" xmlns="http://www.w3.org/2000/svg">
<g clip-path="url(#clip0_2352_48998)">
<path d="M17.5 35.5684C27.165 35.5684 35 27.7333 35 18.0684C35 8.40338 27.165 0.568359 17.5 0.568359C7.83502 0.568359 0 8.40338 0 18.0684C0 27.7333 7.83502 35.5684 17.5 35.5684Z" fill="#F3F2F2"/>
<path d="M18.6351 19.2847C19.9068 19.2847 20.9377 18.2538 20.9377 16.9821C20.9377 15.7104 19.9068 14.6794 18.6351 14.6794C17.3634 14.6794 16.3325 15.7104 16.3325 16.9821C16.3325 18.2538 17.3634 19.2847 18.6351 19.2847Z" fill="#F26E21"/>
<path d="M6.23343 18.0846C5.96211 18.3274 5.61199 18.4328 5.05599 18.4328H4.82528V15.5419H5.05599C5.61192 15.5419 5.94823 15.6402 6.23343 15.8955C6.53075 16.1578 6.70814 16.5637 6.70814 16.9832C6.70814 17.4029 6.53075 17.8231 6.23343 18.0846ZM5.22842 14.8015H3.96509V19.1724H5.22207C5.88915 19.1724 6.37131 19.016 6.79439 18.6679C7.2962 18.2551 7.5941 17.6325 7.5941 16.9889C7.59403 15.6985 6.62195 14.8015 5.22842 14.8015Z" fill="#0B161F"/>
<path d="M7.99048 19.1724H8.84934V14.8015H7.99048V19.1724Z" fill="#0B161F"/>
<path d="M10.952 16.4782C10.4358 16.2884 10.2838 16.1635 10.2838 15.9287C10.2838 15.6531 10.5543 15.4434 10.9249 15.4434C11.1827 15.4434 11.3938 15.5481 11.6196 15.7965L12.0681 15.214C11.6984 14.8924 11.2557 14.7288 10.7727 14.7288C9.99343 14.7288 9.3982 15.2662 9.3982 15.9797C9.3982 16.5835 9.67536 16.8913 10.4822 17.1803C10.8194 17.2977 10.9907 17.376 11.0769 17.4293C11.2485 17.5409 11.335 17.6976 11.335 17.8811C11.335 18.2356 11.0506 18.4973 10.6668 18.4973C10.257 18.4973 9.92681 18.2945 9.72838 17.9142L9.17407 18.4456C9.56975 19.0215 10.0456 19.2782 10.7005 19.2782C11.5924 19.2782 12.22 18.6874 12.22 17.8424C12.2203 17.1472 11.9302 16.8325 10.952 16.4782Z" fill="#0B161F"/>
<path d="M12.4912 16.9889C12.4912 18.2749 13.5092 19.2711 14.8179 19.2711C15.1882 19.2711 15.5048 19.1984 15.8953 19.016V18.0122C15.5513 18.3534 15.247 18.4908 14.8571 18.4908C13.9914 18.4908 13.3766 17.868 13.3766 16.9829C13.3766 16.1442 14.011 15.4819 14.8179 15.4819C15.2269 15.4819 15.538 15.6258 15.8953 15.9735V14.9704C15.5189 14.7808 15.2075 14.7026 14.8372 14.7026C13.5357 14.7029 12.4912 15.7189 12.4912 16.9889Z" fill="#0B161F"/>
<path d="M22.8604 17.7375L21.6838 14.8015H20.7454L22.6164 19.2844H23.0784L24.9823 14.8015H24.0502L22.8604 17.7375Z" fill="#0B161F"/>
<path d="M25.3728 19.1724H27.8111V18.4328H26.2319V17.2518H27.7506V16.512H26.2319V15.5418H27.8111V14.8015H25.3728V19.1724Z" fill="#0B161F"/>
<path d="M29.4889 16.8135H29.2386V15.4888H29.5024C30.0388 15.4888 30.3298 15.7126 30.3298 16.1378C30.3298 16.5766 30.0388 16.8135 29.4889 16.8135ZM31.2137 16.0914C31.2137 15.2727 30.6459 14.8015 29.6539 14.8015H28.3787V19.1724H29.2383V17.4159H29.3511L30.5399 19.1724H31.5974L30.2089 17.331C30.8576 17.2001 31.2137 16.7604 31.2137 16.0914Z" fill="#0B161F"/>
<path d="M10.2363 23.2351V20.7761L11.9153 22.5327V20.9325H12.2629V23.3752L10.5839 21.6227V23.2348H10.2363V23.2351Z" fill="black"/>
<path d="M14.0853 21.259H13.1621V21.8122H14.0585V22.139H13.1621V22.9083H14.0853V23.2349H12.8147V20.9326H14.0853V21.259Z" fill="black"/>
<path d="M15.1765 21.259V23.2348H14.8289V21.259H14.2998V20.9324H15.7046V21.259H15.1765Z" fill="black"/>
<path d="M16.2654 20.9327L16.8651 22.4715L17.4917 20.8208L18.0911 22.4715L18.7278 20.9327H19.1052L18.0762 23.3812L17.484 21.7498L16.8667 23.3829L15.8882 20.9328L16.2654 20.9327Z" fill="black"/>
<path d="M19.1716 22.0737C19.1716 21.7493 19.2907 21.4711 19.5281 21.2387C19.7646 21.006 20.0493 20.8896 20.3814 20.8896C20.7094 20.8896 20.9908 21.0068 21.2253 21.2414C21.461 21.4763 21.5784 21.7578 21.5784 22.0873C21.5784 22.418 21.4602 22.699 21.2239 22.9298C20.9863 23.1614 20.6994 23.2774 20.3634 23.2774C20.0664 23.2774 19.7991 23.1743 19.5626 22.9687C19.302 22.7408 19.1716 22.4424 19.1716 22.0737ZM19.5223 22.0774C19.5223 22.3315 19.6079 22.5405 19.7787 22.7046C19.9486 22.8688 20.1451 22.9506 20.3681 22.9506C20.6093 22.9506 20.8132 22.8671 20.9793 22.7005C21.1454 22.5317 21.2283 22.3261 21.2283 22.0837C21.2283 21.8381 21.1462 21.6325 20.982 21.4669C20.819 21.3 20.6173 21.2166 20.3766 21.2166C20.1371 21.2166 19.9348 21.3 19.7701 21.4669C19.6049 21.6311 19.5223 21.835 19.5223 22.0774Z" fill="black"/>
<path d="M22.7954 22.2537L23.5083 23.2349H23.0833L22.4257 22.2927H22.363V23.2349H22.0154V20.9326H22.4224C22.7269 20.9326 22.9463 20.9899 23.0818 21.1042C23.231 21.2313 23.3056 21.3993 23.3056 21.6083C23.3056 21.7713 23.2589 21.9114 23.1652 22.0285C23.0716 22.1457 22.9487 22.2211 22.7954 22.2537ZM22.3631 21.9898H22.4731C22.8022 21.9898 22.9669 21.864 22.9669 21.6125C22.9669 21.3768 22.8069 21.2591 22.4867 21.2591H22.3631V21.9898Z" fill="black"/>
<path d="M24.202 21.8512L25.0982 20.9326H25.5621L24.5212 21.9752L25.5682 23.235H25.1029L24.2737 22.2106L24.2021 22.2825V23.235H23.8545V20.9327H24.2021V21.8512H24.202Z" fill="black"/>
<path d="M34.9449 19.3809C31.6536 23.5495 24.014 30.7514 10.4282 34.0759C12.5907 35.0325 14.9815 35.5678 17.4983 35.5678C26.7212 35.5677 34.2726 28.4316 34.9449 19.3809Z" fill="#F26E21"/>
</g>
<defs>
<clipPath id="clip0_2352_48998">
<rect width="35" height="35" fill="white" transform="translate(0 0.568359)"/>
</clipPath>
</defs>
</svg>
