<svg width="71" height="71" viewBox="0 0 71 71" fill="none" xmlns="http://www.w3.org/2000/svg">
<path d="M0.179932 57.0447C0.179932 39.9389 0.179932 22.8332 0.179932 5.71574C0.226605 5.61073 0.273279 5.50571 0.308284 5.4007C1.09006 2.32026 3.40039 0.5 6.56251 0.5C25.7452 0.5 44.9396 0.5 64.1224 0.5C67.7746 0.5 70.4466 3.17205 70.4466 6.81257C70.4466 23.1832 70.4466 39.5656 70.4466 55.9362C70.4466 59.5767 67.7746 62.2488 64.134 62.2488C59.105 62.2488 54.0759 62.2605 49.0352 62.2371C48.5335 62.2371 48.2884 62.3771 48.0317 62.8205C45.4997 67.3595 41.6375 69.9499 36.4684 70.44C30.786 70.9767 25.2202 67.8729 22.5831 62.8089C22.3381 62.3421 22.0697 62.2255 21.5796 62.2255C16.5039 62.2371 11.4282 62.2371 6.35247 62.2371C4.56721 62.2371 3.07367 61.5604 1.83683 60.2768C0.938371 59.3901 0.506645 58.2466 0.179932 57.0447ZM21.0079 58.1532C19.8411 48.6902 27.2855 41.6659 35.3016 41.6659C43.4228 41.6659 50.7621 48.7952 49.5953 58.1532C49.852 58.1532 50.097 58.1532 50.3421 58.1532C54.7994 58.1532 59.2567 58.1532 63.714 58.1532C65.5342 58.1532 66.3043 57.3831 66.3043 55.5862C66.3043 44.3612 66.3043 33.1363 66.3043 21.9114C66.3043 21.6663 66.3043 21.4213 66.3043 21.1413C45.6047 21.1413 24.9751 21.1413 4.27551 21.1413C4.27551 21.398 4.27551 21.6197 4.27551 21.8414C4.27551 33.113 4.27551 44.3846 4.27551 55.6562C4.27551 57.3714 5.06896 58.1532 6.79587 58.1532C11.2765 58.1532 15.7572 58.1532 20.2378 58.1532C20.5062 58.1532 20.7512 58.1532 21.0079 58.1532ZM4.29885 16.929C25.0101 16.929 45.6514 16.929 66.316 16.929C66.316 13.6852 66.316 10.4764 66.316 7.2793C66.316 5.36569 65.5809 4.63059 63.6673 4.63059C44.7529 4.63059 25.8386 4.63059 6.92422 4.63059C6.71419 4.63059 6.51583 4.61892 6.3058 4.63059C5.19731 4.71227 4.31052 5.50571 4.29885 6.60254C4.27551 10.033 4.29885 13.4518 4.29885 16.929ZM35.2899 45.7964C29.6541 45.8081 24.9985 50.4754 25.0101 56.1113C25.0218 61.7237 29.6658 66.3677 35.2783 66.3794C40.9141 66.391 45.5931 61.7354 45.5931 56.0879C45.6047 50.4521 40.9257 45.7848 35.2899 45.7964Z" fill="#4D4E50"/>
<path d="M16.784 33.0781C16.0022 34.2449 15.2671 35.3184 14.567 36.4035C14.0186 37.2553 13.2835 37.7221 12.2683 37.5354C11.2882 37.3487 10.7981 36.6602 10.5764 35.6918C9.94635 33.0781 9.26958 30.476 8.62783 27.874C8.32445 26.6722 8.98953 25.5287 10.1097 25.2486C11.2299 24.9686 12.3384 25.6687 12.6534 26.8705C12.9568 28.014 13.2251 29.1692 13.5402 30.4294C13.8786 29.9393 14.2053 29.5542 14.427 29.1225C15.6638 26.6488 17.8575 26.5788 19.1643 29.1458C19.3744 29.5659 19.6894 29.9276 20.0278 30.4294C20.3428 29.2042 20.6229 28.084 20.9029 26.9755C21.2296 25.7037 22.2798 24.9919 23.4349 25.2486C24.6134 25.517 25.2435 26.6722 24.9168 27.979C24.2634 30.581 23.61 33.1947 22.9682 35.7968C22.7348 36.7302 22.2097 37.372 21.2646 37.5354C20.3078 37.6987 19.5844 37.2903 19.0593 36.4852C18.3359 35.3767 17.5891 34.2799 16.784 33.0781Z" fill="#4D4E50"/>
<path d="M35.3017 33.078C34.5199 34.2565 33.7848 35.33 33.0847 36.4152C32.5362 37.2669 31.7895 37.722 30.786 37.5353C29.8409 37.3486 29.3391 36.6835 29.1174 35.7501C28.4873 33.1364 27.8223 30.5343 27.1688 27.9323C26.8538 26.6721 27.4955 25.5286 28.639 25.2486C29.7825 24.9685 30.8677 25.6803 31.1827 26.9521C31.4628 28.0373 31.7311 29.1108 32.0112 30.1959C32.0228 30.2309 32.0462 30.2659 32.1162 30.371C32.5829 29.6825 33.0147 29.0291 33.4581 28.3757C34.4849 26.8705 36.1301 26.8705 37.1569 28.364C37.6003 29.0174 38.0437 29.6825 38.5454 30.441C38.8605 29.2041 39.1405 28.084 39.4206 26.9638C39.7473 25.7036 40.8091 24.9802 41.9643 25.2486C43.1428 25.5286 43.7612 26.6721 43.4345 27.9906C42.7927 30.5927 42.1276 33.2064 41.4859 35.8084C41.2525 36.7419 40.7274 37.372 39.7706 37.5353C38.8138 37.6987 38.102 37.2786 37.577 36.4735C36.8535 35.365 36.1068 34.2799 35.3017 33.078Z" fill="#4D4E50"/>
<path d="M50.6572 30.3359C51.1123 29.6592 51.5674 28.9824 52.0224 28.3056C53.0026 26.8821 54.6595 26.8938 55.6396 28.3173C56.1063 28.9824 56.5497 29.6708 57.0631 30.4293C57.3782 29.1924 57.6582 28.0723 57.9499 26.9521C58.2766 25.6919 59.3501 24.9802 60.5053 25.2602C61.6605 25.5402 62.2906 26.6837 61.9755 27.9439C61.3221 30.5693 60.657 33.1947 60.0152 35.8317C59.7935 36.7418 59.2801 37.3719 58.3583 37.5469C57.4132 37.722 56.6664 37.3486 56.1414 36.5435C55.4062 35.4233 54.6478 34.3148 53.8427 33.1013C53.0376 34.2915 52.2791 35.4233 51.5323 36.5551C51.1473 37.1386 50.6339 37.5236 49.9221 37.582C48.8603 37.6636 47.9852 37.0802 47.7168 36.0301C47.0051 33.2997 46.3283 30.5576 45.6632 27.8156C45.3831 26.6604 46.0949 25.5286 47.1917 25.2719C48.3002 25.0152 49.3971 25.6919 49.7004 26.8471C50.0038 27.9906 50.2838 29.1458 50.5756 30.2892C50.5639 30.2776 50.5872 30.2892 50.6572 30.3359Z" fill="#4D4E50"/>
<path d="M53.761 12.8566C51.7774 12.8566 49.7821 12.8566 47.7985 12.8566C46.48 12.8566 45.5932 11.9932 45.6049 10.768C45.6165 9.57784 46.515 8.74939 47.8102 8.74939C51.8357 8.74939 55.8497 8.74939 59.8752 8.74939C61.1704 8.74939 62.0572 9.57784 62.0689 10.768C62.0805 12.0049 61.1821 12.8566 59.8635 12.8566C57.8333 12.8683 55.7913 12.8566 53.761 12.8566Z" fill="#4D4E50"/>
<path d="M10.5648 12.8568C9.39795 12.8451 8.51116 11.9116 8.54617 10.7331C8.5695 9.60129 9.49131 8.73784 10.6348 8.74951C11.8016 8.76117 12.6884 9.69464 12.6534 10.8731C12.6301 12.005 11.7199 12.8684 10.5648 12.8568Z" fill="#4D4E50"/>
<path d="M18.8374 8.74939C19.9809 8.74939 20.8794 9.63618 20.8911 10.768C20.9027 11.9465 20.0043 12.8566 18.8374 12.8566C17.6706 12.8566 16.7721 11.9465 16.7838 10.768C16.7955 9.63618 17.6939 8.74939 18.8374 8.74939Z" fill="#4D4E50"/>
<path d="M29.1291 10.8264C29.1174 11.9933 28.1956 12.8801 27.0171 12.8567C25.8853 12.8334 25.0102 11.9233 25.0218 10.7798C25.0335 9.61293 25.9553 8.72614 27.1338 8.74947C28.254 8.76114 29.1408 9.68294 29.1291 10.8264Z" fill="#4D4E50"/>
<path d="M33.6215 57.7332C35.3951 55.9596 37.0403 54.2793 38.7205 52.6341C39.899 51.4673 41.696 51.8757 42.2094 53.3926C42.4777 54.1743 42.3027 54.8978 41.731 55.4812C39.549 57.6865 37.3553 59.8918 35.1384 62.0738C34.2749 62.9256 33.0614 62.9139 32.1863 62.0738C31.0428 60.9653 29.9109 59.8335 28.7908 58.6783C27.9507 57.8032 27.9507 56.543 28.7558 55.7262C29.5609 54.9094 30.8327 54.9094 31.7079 55.7496C32.3496 56.3563 32.9447 57.0214 33.6215 57.7332Z" fill="#4D4E50"/>
</svg>
