<svg width="44" height="51" viewBox="0 0 44 51" fill="none" xmlns="http://www.w3.org/2000/svg">
<path d="M16.9373 0.0522461C17.7673 0.412246 18.0273 1.05225 18.0173 1.92225C17.9873 3.86225 18.0173 5.79225 18.0073 7.73225C18.0073 8.48225 17.5073 9.09225 16.8373 9.22225C16.1273 9.36225 15.4373 9.00225 15.1773 8.34225C15.0973 8.13225 15.0673 7.90225 15.0673 7.67225C15.0573 5.67225 15.0773 3.67225 15.0573 1.67225C15.0473 0.892246 15.4273 0.402246 16.0673 0.0522461C16.3473 0.0522461 16.6373 0.0522461 16.9373 0.0522461Z" fill="#202124"/>
<path d="M33.7374 17.7222C35.8574 18.8922 36.7275 20.6622 36.3575 23.0322C37.3775 23.3522 38.2275 23.8822 38.8475 24.7422C39.5875 25.7722 39.9175 26.9222 39.6975 28.1922C39.6575 28.4522 39.6875 28.5822 39.9775 28.6922C43.2975 29.9522 44.1575 33.8722 41.6575 36.3922C37.7275 40.3522 33.7675 44.2922 29.8175 48.2322C28.5975 49.4522 27.1175 50.0522 25.3875 50.0522C20.9475 50.0422 16.5075 50.0422 12.0575 50.0622C11.4575 50.0622 10.9975 49.8822 10.5775 49.4622C7.53746 46.4022 4.47746 43.3622 1.43746 40.3122C0.717461 39.5922 0.717461 38.7622 1.43746 38.0422C2.69746 36.7722 3.95745 35.5022 5.23745 34.2522C5.49745 33.9922 5.60746 33.7322 5.60746 33.3622C5.59746 27.6222 5.60746 21.8722 5.57746 16.1322C5.56746 15.2122 5.92745 14.6022 6.61745 14.0722C10.2575 11.3222 15.3175 13.2622 16.3175 17.7922C16.5475 18.8222 16.7874 19.8522 17.0174 20.8722C17.0374 20.9722 17.0875 21.0722 17.1575 21.2422C18.3975 19.9922 19.5975 18.7822 20.8075 17.5722C24.4375 13.9322 28.0875 10.3022 31.7075 6.66222C32.6875 5.68222 33.8375 5.10222 35.2275 5.15222C37.1575 5.22222 38.5774 6.16222 39.3475 7.92222C40.1175 9.67222 39.8675 11.3722 38.5775 12.7822C37.1375 14.3522 35.5875 15.8222 34.0875 17.3322C33.9875 17.4422 33.8675 17.5722 33.7374 17.7222ZM18.4075 24.1722C20.6475 26.5322 21.5375 29.2722 21.0275 32.4322C20.7175 34.3522 19.8375 35.9922 18.4874 37.3822C17.9974 37.8822 17.3274 37.9822 16.7374 37.6822C16.1674 37.3922 15.8275 36.8122 15.9775 36.1422C16.0575 35.8022 16.2675 35.4522 16.5075 35.1922C18.6075 32.8922 18.8075 29.4622 16.9275 26.9922C16.4875 26.4122 15.8975 25.9422 15.4375 25.3822C15.1575 25.0422 14.9075 24.6322 14.7975 24.2122C14.3075 22.2322 13.8775 20.2322 13.4075 18.2422C12.9375 16.2622 10.9174 15.2322 9.09745 16.0022C8.70745 16.1622 8.53745 16.3722 8.53745 16.8322C8.56745 22.5422 8.56745 28.2522 8.58745 33.9622C8.58745 34.7122 8.37746 35.3022 7.82746 35.8222C6.69746 36.8922 5.60746 38.0222 4.49746 39.1322C4.57746 39.2322 4.63745 39.3122 4.70745 39.3722C7.20745 41.8722 9.69745 44.3722 12.2074 46.8522C12.3574 47.0022 12.6274 47.0822 12.8474 47.0822C16.9674 47.0922 21.0775 47.0922 25.1975 47.0922C26.2375 47.0922 27.1275 46.7422 27.8675 45.9922C29.9275 43.9122 32.0075 41.8422 34.0775 39.7722C34.1775 39.6722 34.2575 39.5622 34.3475 39.4522C32.5774 38.4222 31.9774 37.5122 31.6274 35.4422C29.0174 35.1022 27.5375 33.6122 27.1775 31.0122C25.2875 30.6522 24.2875 30.0622 23.5075 28.8622C22.2875 26.9722 22.5875 24.6322 24.2775 22.9422C28.1875 19.0222 32.0975 15.1222 36.0075 11.2022C36.1675 11.0422 36.3375 10.8822 36.4675 10.7022C37.1975 9.73222 36.6875 8.36222 35.4975 8.10222C34.7775 7.94222 34.2475 8.25222 33.7575 8.74222C28.7475 13.7622 23.7275 18.7822 18.7075 23.7922C18.6275 23.9322 18.5275 24.0422 18.4075 24.1722ZM33.4975 22.1822C33.4475 21.2422 33.1375 20.7222 32.4874 20.4422C31.8174 20.1522 31.1875 20.2622 30.6875 20.7622C29.1775 22.2422 27.6775 23.7322 26.1975 25.2522C25.5275 25.9322 25.5675 26.9222 26.2275 27.5722C26.8775 28.2122 27.8675 28.2422 28.5475 27.5722C30.0475 26.1022 31.5375 24.6222 32.9975 23.1122C33.2775 22.8122 33.3975 22.3622 33.4975 22.1822ZM30.0575 30.7722C30.0975 30.7922 30.1375 30.8222 30.1775 30.8422C30.1875 31.5422 30.5175 32.0622 31.1475 32.3422C31.8175 32.6422 32.4574 32.5222 32.9874 32.0022C34.0874 30.9222 35.1774 29.8222 36.2674 28.7322C36.9774 28.0122 36.9875 27.0022 36.3275 26.3322C35.6475 25.6522 34.6675 25.6622 33.9375 26.3722C32.8475 27.4422 31.7575 28.5122 30.7075 29.6222C30.4075 29.9322 30.2675 30.3822 30.0575 30.7722ZM38.2975 31.3722C38.1175 31.4522 37.7174 31.5222 37.4575 31.7622C36.5975 32.5522 35.7575 33.3722 34.9775 34.2422C34.3875 34.8822 34.4874 35.8422 35.0975 36.4522C35.6974 37.0522 36.6775 37.1322 37.3075 36.5522C38.1575 35.7722 38.9675 34.9522 39.7575 34.1022C40.2275 33.5922 40.2775 32.9622 39.9775 32.3322C39.6775 31.7222 39.1675 31.4122 38.2975 31.3722Z" fill="#202124"/>
<path d="M25.8375 6.41222C25.7475 6.59222 25.6375 6.96222 25.4075 7.22222C24.9175 7.78222 24.3675 8.30222 23.8275 8.81222C23.2275 9.38222 22.3275 9.38222 21.7575 8.83222C21.1775 8.28222 21.1475 7.38222 21.7075 6.77222C22.2375 6.20222 22.7875 5.64222 23.3675 5.12222C23.8375 4.69222 24.4075 4.60222 24.9975 4.89222C25.5575 5.16222 25.8075 5.62222 25.8375 6.41222Z" fill="#202124"/>
<path d="M10.1975 9.35223C9.83755 9.15223 9.43755 9.01223 9.13755 8.75223C8.61755 8.31223 8.15755 7.80223 7.68755 7.31223C7.05755 6.65223 7.03755 5.78223 7.63755 5.18223C8.23755 4.58223 9.11754 4.60223 9.76754 5.23223C10.2875 5.74223 10.8175 6.25223 11.3175 6.78223C11.7575 7.25223 11.8476 7.81223 11.5776 8.40223C11.3176 8.96223 10.8575 9.23223 10.1975 9.35223Z" fill="#202124"/>
</svg>
