<svg width="30" height="31" viewBox="0 0 30 31" fill="none" xmlns="http://www.w3.org/2000/svg">
<path d="M15.21 0.0456543C15.7 0.255654 15.87 0.625654 15.86 1.15565C15.83 2.23565 15.85 3.31565 15.85 4.39565C15.85 4.98565 15.49 5.36565 14.96 5.36565C14.44 5.35565 14.1 4.97565 14.1 4.39565C14.1 3.31565 14.12 2.23565 14.09 1.15565C14.08 0.625654 14.25 0.255654 14.74 0.0456543C14.9 0.0456543 15.05 0.0456543 15.21 0.0456543Z" fill="#F7421E"/>
<path d="M0 14.7857C0.21 14.2957 0.58 14.1257 1.11 14.1357C2.19 14.1657 3.27 14.1457 4.35 14.1457C4.94 14.1457 5.32 14.5057 5.32 15.0357C5.31 15.5557 4.93 15.8957 4.35 15.8957C3.27 15.8957 2.19 15.8757 1.11 15.9057C0.58 15.9157 0.21 15.7457 0 15.2557C0 15.0957 0 14.9457 0 14.7857Z" fill="#F7421E"/>
<path d="M14.95 30.0457C14.41 29.9857 13.85 29.9957 13.33 29.8657C12.23 29.5757 11.49 28.5657 11.46 27.4257C11.46 27.2357 11.45 27.0557 11.46 26.8657C11.48 26.2957 11.49 25.7557 11.03 25.2857C10.65 24.8857 10.58 24.3157 10.57 23.7557C10.56 22.5157 10.18 21.4257 9.29001 20.5057C7.68001 18.8457 6.97001 16.8257 7.08001 14.5257C7.24001 11.0857 9.75001 8.0757 13.11 7.3357C15.93 6.7257 18.45 7.3857 20.51 9.4057C22.42 11.2757 23.15 13.6057 22.76 16.2557C22.53 17.8357 21.87 19.2157 20.76 20.3557C19.78 21.3657 19.33 22.5557 19.35 23.9457C19.36 24.5857 19.08 25.1257 18.67 25.6057C18.57 25.7257 18.5 25.9057 18.49 26.0657C18.46 26.4757 18.48 26.8857 18.48 27.2957C18.47 28.8257 17.33 29.9657 15.8 29.9757C15.52 29.9757 15.23 29.9757 14.95 29.9757C14.96 30.0157 14.95 30.0257 14.95 30.0457ZM14.97 24.7257C15.52 24.7257 16.06 24.7257 16.61 24.7257C17.25 24.7157 17.59 24.3657 17.61 23.7257C17.62 23.3357 17.64 22.9457 17.7 22.5657C17.92 21.1957 18.61 20.0957 19.53 19.0857C20.91 17.5657 21.37 15.7457 20.96 13.7457C20.26 10.3257 16.78 8.1857 13.38 9.0857C11.76 9.5157 10.51 10.4657 9.66001 11.8957C8.91001 13.1757 8.70001 14.5657 8.93001 16.0357C9.14001 17.3257 9.73001 18.4257 10.63 19.3557C11.81 20.5757 12.33 22.0457 12.33 23.7257C12.33 24.3757 12.69 24.7257 13.35 24.7357C13.9 24.7357 14.44 24.7257 14.97 24.7257ZM16.73 26.5057C15.54 26.5057 14.39 26.5057 13.22 26.5057C13.22 26.7957 13.21 27.0657 13.22 27.3457C13.24 27.8657 13.59 28.2257 14.11 28.2357C14.68 28.2557 15.26 28.2557 15.83 28.2357C16.34 28.2257 16.69 27.8757 16.72 27.3657C16.74 27.0857 16.73 26.8057 16.73 26.5057Z" fill="#F7421E"/>
<path d="M27.32 14.1456C27.89 14.1456 28.47 14.1456 29.04 14.1456C29.58 14.1456 29.95 14.5256 29.95 15.0356C29.94 15.5356 29.57 15.8956 29.04 15.8956C27.87 15.8956 26.7 15.8956 25.53 15.8956C24.99 15.8956 24.62 15.5156 24.62 15.0056C24.63 14.5056 25 14.1456 25.53 14.1456C26.13 14.1356 26.72 14.1456 27.32 14.1456Z" fill="#F7421E"/>
<path d="M5.15003 4.19556C5.28003 4.26556 5.52003 4.34556 5.69003 4.50556C6.52003 5.30556 7.33003 6.12556 8.13003 6.94556C8.51003 7.32556 8.51003 7.84556 8.16003 8.19556C7.80003 8.55556 7.28003 8.56556 6.88003 8.17556C6.06003 7.36556 5.25003 6.55556 4.44003 5.73556C4.17003 5.45556 4.08003 5.11556 4.24003 4.74556C4.39003 4.40556 4.68003 4.23556 5.15003 4.19556Z" fill="#F7421E"/>
<path d="M22.53 8.47569C22.08 8.44569 21.8 8.28569 21.63 7.96569C21.46 7.62569 21.51 7.29569 21.75 7.01569C21.97 6.75569 22.22 6.52569 22.46 6.28569C23.05 5.69569 23.64 5.09569 24.24 4.50569C24.79 3.97569 25.6 4.20569 25.76 4.92569C25.83 5.22569 25.74 5.49569 25.53 5.70569C24.7 6.54569 23.87 7.38569 23.02 8.20569C22.88 8.34569 22.65 8.40569 22.53 8.47569Z" fill="#F7421E"/>
<path d="M15.85 11.5157C15.85 12.0057 15.49 12.3657 14.98 12.3857C13.91 12.4257 13.1 12.8957 12.6 13.8557C12.52 14.0057 12.48 14.1857 12.41 14.3457C12.22 14.8257 11.77 15.0557 11.31 14.9057C10.83 14.7457 10.59 14.2857 10.74 13.7857C11.3 11.8857 13 10.6057 14.95 10.6257C15.48 10.6357 15.85 11.0157 15.85 11.5157Z" fill="#F7421E"/>
</svg>
