<svg width="51" height="51" viewBox="0 0 51 51" fill="none" xmlns="http://www.w3.org/2000/svg">
<path d="M50.0061 40.0779C49.7561 40.7179 49.2561 41.0379 48.6061 41.2479C46.9061 41.7879 45.226 42.3679 43.526 42.9179C43.156 43.0379 42.9861 43.2379 42.8661 43.5979C42.3061 45.3379 41.7161 47.0779 41.1361 48.8079C40.6761 50.1879 39.4661 50.4679 38.4261 49.4279C35.0061 46.0179 31.5961 42.5979 28.1761 39.1779C28.0461 39.0479 27.936 38.9179 27.776 38.7379C27.256 39.1879 26.766 39.5979 26.276 40.0179C25.326 40.8479 24.7061 40.8479 23.7561 40.0379C23.2761 39.6279 22.796 39.2079 22.276 38.7679C22.126 38.9079 21.9961 39.0279 21.8561 39.1679C18.4261 42.5979 14.9961 46.0179 11.5761 49.4479C11.0761 49.9479 10.5261 50.1979 9.82609 49.9479C9.32609 49.7679 9.06605 49.3779 8.90605 48.8879C8.31605 47.1079 7.71609 45.3279 7.13609 43.5379C7.02609 43.2079 6.85604 43.0379 6.52604 42.9279C4.75604 42.3479 2.98604 41.7579 1.21604 41.1679C-0.103956 40.7279 -0.403899 39.5079 0.586101 38.5179C3.0461 36.0579 5.50605 33.5879 7.97605 31.1379C8.27605 30.8379 8.42606 30.5179 8.41606 30.1079C8.41606 30.0279 8.39607 29.9379 8.42607 29.8679C8.72607 28.9579 8.29608 28.4579 7.50608 28.1179C7.13608 27.9579 6.80604 27.7079 6.46604 27.4979C5.67604 26.9979 5.45608 26.3179 5.81608 25.4479C6.06608 24.8279 6.3161 24.2179 6.5861 23.6079C6.7061 23.3479 6.68606 23.1779 6.48606 22.9579C6.04606 22.4779 5.6261 21.9779 5.2061 21.4779C4.5261 20.6779 4.5361 20.0079 5.2061 19.2179C5.6061 18.7479 5.99606 18.2679 6.41606 17.8179C6.64606 17.5779 6.70607 17.3579 6.55607 17.0379C6.29607 16.4779 6.0761 15.9079 5.8361 15.3379C5.4161 14.3179 5.62609 13.7079 6.57609 13.1279C7.11609 12.7979 7.64609 12.4479 8.19609 12.1479C8.44609 12.0079 8.51606 11.8379 8.48606 11.5579C8.40606 10.8279 8.33607 10.0979 8.30607 9.36786C8.27607 8.59786 8.67607 8.06786 9.42607 7.86786C10.0861 7.68786 10.7461 7.52786 11.4161 7.39786C11.7761 7.32786 11.956 7.16786 12.026 6.79786C12.146 6.14786 12.3161 5.49786 12.4861 4.85786C12.7061 4.02786 13.2261 3.63786 14.0861 3.67786C14.7961 3.70786 15.5161 3.75786 16.2261 3.83786C16.4961 3.86786 16.636 3.80786 16.776 3.57786C17.116 2.98786 17.4761 2.40786 17.8361 1.82786C18.3561 0.997862 19.0061 0.787864 19.9161 1.15786C20.5361 1.40786 21.1461 1.65786 21.7561 1.92786C22.0261 2.04786 22.196 1.99786 22.406 1.81786C23.126 1.21786 23.8761 0.647861 24.6061 0.0578613C24.8661 0.0578613 25.1261 0.0578613 25.3861 0.0578613C26.0961 0.617861 26.8161 1.16786 27.5061 1.74786C27.7761 1.97786 27.9861 2.04786 28.3261 1.88786C28.9061 1.60786 29.5161 1.36786 30.1161 1.12786C30.9761 0.777861 31.6361 0.987864 32.1261 1.76786C32.4961 2.35786 32.866 2.95786 33.216 3.55786C33.346 3.78786 33.4961 3.84786 33.7661 3.81786C34.4961 3.73786 35.2261 3.68786 35.9561 3.64786C36.7561 3.60786 37.2961 4.00786 37.4961 4.77786C37.6761 5.46786 37.8361 6.16786 37.9961 6.85786C38.0561 7.11786 38.1661 7.26786 38.4461 7.32786C39.1561 7.47786 39.8661 7.64786 40.5761 7.83786C41.3261 8.03786 41.7161 8.56786 41.6961 9.33786C41.6761 10.0079 41.6261 10.6679 41.5361 11.3279C41.4861 11.7279 41.5361 11.9879 41.9361 12.1879C42.4461 12.4379 42.9161 12.7679 43.3961 13.0679C44.4061 13.6879 44.5961 14.2879 44.1361 15.3979C43.9261 15.9079 43.7261 16.4279 43.4861 16.9179C43.3161 17.2779 43.3361 17.5279 43.6261 17.8279C44.0561 18.2679 44.4461 18.7579 44.8361 19.2279C45.4561 19.9579 45.4661 20.6379 44.8661 21.3779C44.4461 21.8879 44.0161 22.4079 43.5561 22.8879C43.3261 23.1279 43.3261 23.3379 43.4561 23.6179C43.7361 24.2579 44.0061 24.8979 44.2561 25.5479C44.5361 26.2879 44.3261 26.9379 43.6761 27.3779C43.3161 27.6179 42.9461 27.8779 42.5561 28.0579C41.7661 28.4179 41.2861 28.8979 41.5961 29.8379C41.6261 29.9279 41.6061 30.0279 41.6061 30.1279C41.6061 30.5079 41.7461 30.7979 42.0161 31.0679C44.4061 33.4379 46.786 35.8179 49.156 38.2079C49.466 38.5279 49.7161 38.9079 49.9961 39.2679C50.0061 39.5579 50.0061 39.8179 50.0061 40.0779ZM19.8061 4.28786C19.4461 4.86786 19.096 5.40786 18.776 5.96786C18.356 6.69786 17.7461 6.94786 16.9361 6.83786C16.3261 6.75786 15.7161 6.72786 15.1061 6.68786C14.9561 7.31786 14.7861 7.89786 14.6761 8.48786C14.5161 9.37786 14.0061 9.84786 13.1361 10.0079C12.5361 10.1179 11.9461 10.2879 11.3661 10.4279C11.4261 11.1179 11.4761 11.7479 11.5361 12.3779C11.6161 13.1579 11.3161 13.7279 10.6261 14.1079C10.0661 14.4279 9.52604 14.7779 8.96604 15.1279C9.24604 15.7879 9.49608 16.3979 9.75608 17.0079C10.0261 17.6479 9.94605 18.2379 9.47605 18.7779C9.02605 19.2879 8.5961 19.8079 8.1461 20.3379C8.6061 20.8779 9.03605 21.3879 9.47605 21.8879C9.95605 22.4379 10.0261 23.0379 9.74607 23.6979C9.48607 24.3079 9.23605 24.9179 8.97605 25.5479C9.50605 25.8679 9.98607 26.2079 10.4961 26.4779C11.3861 26.9279 11.6561 27.6379 11.5161 28.5779C11.4361 29.1179 11.4161 29.6679 11.3661 30.2479C11.9961 30.4079 12.6061 30.5779 13.2261 30.6979C14.0461 30.8479 14.5061 31.3279 14.6661 32.1379C14.7861 32.7479 14.956 33.3579 15.096 33.9779C15.826 33.9279 16.5061 33.8879 17.1861 33.8279C17.8961 33.7679 18.4061 34.0579 18.7561 34.6679C19.0961 35.2379 19.4461 35.7979 19.7961 36.3879C20.3761 36.1479 20.9461 35.9479 21.4761 35.6779C22.2961 35.2679 22.9961 35.4079 23.6461 36.0379C24.0761 36.4479 24.5461 36.8179 25.0061 37.2079C25.5561 36.7379 26.0661 36.3079 26.5661 35.8679C27.0961 35.4079 27.6761 35.3179 28.3261 35.5979C28.9461 35.8679 29.576 36.1179 30.216 36.3879C30.566 35.8179 30.9161 35.2879 31.2261 34.7379C31.5961 34.0679 32.136 33.7579 32.906 33.8379C33.566 33.8979 34.2261 33.9379 34.9161 33.9879C35.0761 33.2979 35.2461 32.6379 35.3961 31.9779C35.5561 31.2879 35.9961 30.8879 36.6761 30.7279C37.2261 30.5979 37.7761 30.4479 38.3361 30.3479C38.6161 30.2979 38.6661 30.1879 38.6361 29.9179C38.5661 29.3579 38.5361 28.7879 38.4861 28.2179C38.4261 27.4879 38.7161 26.9679 39.3461 26.5979C39.9161 26.2679 40.4761 25.9079 41.0561 25.5579C40.7961 24.9379 40.5761 24.3379 40.3161 23.7679C39.9761 23.0279 40.0861 22.3879 40.6361 21.7979C41.0661 21.3379 41.4661 20.8379 41.8861 20.3479C41.4361 19.8179 41.0161 19.2979 40.5661 18.8079C40.0761 18.2579 39.996 17.6679 40.276 17.0079C40.536 16.3979 40.7861 15.7879 41.0561 15.1379C40.5461 14.8279 40.0661 14.4879 39.5461 14.2279C38.6361 13.7679 38.3661 13.0479 38.5161 12.0879C38.5961 11.5479 38.6161 10.9979 38.6661 10.4379C38.0261 10.2879 37.4361 10.1279 36.8361 10.0179C36.0061 9.85786 35.5261 9.37786 35.3661 8.54786C35.2461 7.93786 35.0761 7.32786 34.9261 6.71786C34.2761 6.77786 33.6761 6.79786 33.0761 6.87786C32.2561 6.98786 31.6561 6.71786 31.2461 5.98786C30.9861 5.51786 30.6761 5.07786 30.4161 4.60786C30.2861 4.37786 30.1661 4.32786 29.9161 4.44786C29.4361 4.67786 28.9261 4.84786 28.4361 5.06786C27.7261 5.38786 27.0961 5.30786 26.5061 4.76786C26.0361 4.32786 25.5261 3.92786 25.0161 3.49786C24.4861 3.94786 23.9761 4.37786 23.4761 4.81786C22.9261 5.30786 22.3361 5.38786 21.6761 5.09786C21.0661 4.80786 20.4461 4.55786 19.8061 4.28786ZM45.7961 39.0579C45.6461 38.8979 45.5461 38.7779 45.4261 38.6679C43.8661 37.1079 42.2561 35.5779 40.7561 33.9579C40.0861 33.2379 39.4661 32.8979 38.5061 33.3179C38.2461 33.4379 38.0661 33.5179 38.0061 33.8079C37.8861 34.3979 37.7361 34.9779 37.6061 35.5579C37.3361 36.7379 36.7361 37.1579 35.5361 37.0179C34.9361 36.9479 34.3361 36.8979 33.7361 36.8679C33.5961 36.8579 33.3861 36.9179 33.3261 37.0179C32.9161 37.6479 32.5261 38.3079 32.1961 38.8579C34.5161 41.1879 36.7961 43.4579 39.0661 45.7279C39.4861 44.4679 39.9461 43.1679 40.3461 41.8579C40.5861 41.0579 41.0461 40.6079 41.8461 40.3679C43.1561 39.9679 44.4461 39.5079 45.7961 39.0579ZM4.21604 38.9279C4.24604 38.9779 4.27607 39.0279 4.30607 39.0779C5.39607 39.4479 6.4661 39.8879 7.5861 40.1479C8.8961 40.4579 9.60606 41.1779 9.91606 42.4779C10.1761 43.5979 10.6261 44.6779 10.9961 45.7579C13.3061 43.4479 15.5761 41.1779 17.8761 38.8779C17.5461 38.3379 17.1761 37.7579 16.8461 37.1679C16.6961 36.8979 16.5161 36.8079 16.2261 36.8379C15.5161 36.9079 14.8061 36.9879 14.0861 37.0279C13.3061 37.0679 12.7461 36.6379 12.5361 35.8979C12.4261 35.5079 12.2761 35.1179 12.2561 34.7179C12.2061 33.6679 11.6761 33.1779 10.6461 33.0979C10.3561 33.0779 10.176 33.0979 9.96604 33.2979C8.21604 35.0679 6.45608 36.8179 4.68608 38.5779C4.54608 38.7179 4.37604 38.8179 4.21604 38.9279Z" fill="#202124"/>
<path d="M23.5062 18.8579C23.6662 18.6379 23.7662 18.4679 23.9062 18.3279C26.0462 16.1879 28.1762 14.0479 30.3162 11.9079C31.1662 11.0579 31.9462 11.0579 32.8062 11.9079C34.1562 13.2479 35.4962 14.5979 36.8462 15.9479C37.6962 16.7979 37.6962 17.5879 36.8462 18.4379C32.7962 22.4879 28.7562 26.5379 24.7062 30.5779C23.8362 31.4479 23.0761 31.4479 22.2162 30.5879C19.4662 27.8379 16.7162 25.0879 13.9762 22.3479C13.1462 21.5179 13.1362 20.7179 13.9662 19.8979C15.3362 18.5279 16.6962 17.1579 18.0662 15.7979C18.8662 14.9979 19.6662 14.9979 20.4762 15.8079C21.4562 16.7879 22.4262 17.7679 23.5062 18.8579ZM31.4862 14.7979C31.3662 14.9679 31.2762 15.1279 31.1462 15.2579C28.9762 17.4379 26.7962 19.6079 24.6262 21.7879C24.2362 22.1779 23.7862 22.4479 23.2362 22.3079C22.8962 22.2179 22.5362 22.0279 22.2862 21.7779C21.2662 20.7979 20.2862 19.7879 19.3262 18.8279C18.5162 19.6279 17.7562 20.3879 17.0362 21.0979C19.1762 23.2379 21.3262 25.3979 23.4562 27.5279C26.8962 24.0879 30.3662 20.6179 33.8262 17.1479C33.1062 16.4279 32.3562 15.6679 31.4862 14.7979Z" fill="#202124"/>
</svg>
