<svg width="35" height="36" viewBox="0 0 35 36" fill="none" xmlns="http://www.w3.org/2000/svg">
<g clip-path="url(#clip0_2352_48983)">
<path d="M17.5 35.5684C27.165 35.5684 35 27.7333 35 18.0684C35 8.40338 27.165 0.568359 17.5 0.568359C7.83502 0.568359 0 8.40338 0 18.0684C0 27.7333 7.83502 35.5684 17.5 35.5684Z" fill="white"/>
<path d="M17.0418 23.3347C18.5638 21.9608 19.5243 19.966 19.5243 17.7504C19.5243 15.5343 18.5635 13.5406 17.0418 12.1515C15.7119 10.9403 13.94 10.2014 11.9897 10.2014C7.82434 10.2014 4.44043 13.5847 4.44043 17.7501C4.44043 21.9166 7.82434 25.2845 11.9897 25.2845C13.9401 25.2848 15.7119 24.5464 17.0418 23.3347Z" fill="#009DDD"/>
<path d="M17.0417 23.3346C18.5638 21.9607 19.5243 19.9659 19.5243 17.7503C19.5243 15.5342 18.5635 13.5405 17.0417 12.1514V23.3346Z" fill="#009DDD"/>
<path d="M22.1097 10.2017C20.1591 10.2017 18.3862 10.9406 17.0419 12.1517C16.7763 12.4027 16.5255 12.6687 16.2883 12.95H17.8098C18.017 13.2004 18.2091 13.4817 18.3862 13.7472H15.7119C15.5499 14.0133 15.4021 14.2797 15.2686 14.545H18.8145C18.9333 14.8106 19.0507 15.0775 19.1394 15.343H14.9597C14.8707 15.6089 14.7967 15.8755 14.7378 16.1554H19.3613C19.4644 16.6578 19.5244 17.2047 19.5244 17.7507C19.5244 18.578 19.3907 19.3909 19.1395 20.1442H14.9598C15.0477 20.4097 15.1513 20.6761 15.269 20.942H18.8148C18.6822 21.208 18.5488 21.4885 18.3862 21.7398H15.7119C15.8901 22.0205 16.0817 22.2863 16.2883 22.5375H17.8098C17.5738 22.8183 17.3223 23.0844 17.0419 23.3353C18.3862 24.5471 20.1591 25.2854 22.1097 25.2854C26.2756 25.2854 29.6441 21.9175 29.6441 17.751C29.6437 13.5851 26.2756 10.2017 22.1097 10.2017Z" fill="#ED1C2E"/>
<path d="M27.043 19.3754C27.043 19.2422 27.1618 19.1392 27.2944 19.1392C27.4276 19.1392 27.5307 19.2423 27.5307 19.3754C27.5307 19.5088 27.4276 19.6269 27.2944 19.6269C27.1618 19.6269 27.043 19.5088 27.043 19.3754ZM27.2944 19.5677C27.3975 19.5677 27.4715 19.479 27.4715 19.3754C27.4715 19.2721 27.3974 19.198 27.2944 19.198C27.1908 19.198 27.1029 19.2721 27.1029 19.3754C27.1029 19.479 27.1908 19.5677 27.2944 19.5677ZM27.2648 19.479H27.206V19.272H27.2944C27.3234 19.272 27.3386 19.272 27.3537 19.2869C27.3683 19.3016 27.3827 19.316 27.3827 19.3312C27.3827 19.361 27.3681 19.3905 27.3385 19.3905L27.3827 19.4789H27.3234L27.2944 19.4049H27.2648V19.479ZM27.2648 19.361H27.2944C27.2944 19.361 27.309 19.361 27.3234 19.361C27.3234 19.361 27.3234 19.3458 27.3234 19.3312V19.316C27.3088 19.316 27.2944 19.316 27.2797 19.316H27.2645V19.361H27.2648Z" fill="white"/>
<path d="M11.0443 19.6268H10.0992L10.6604 16.687L9.3755 19.6268H8.51782L8.37049 16.7016L7.80931 19.6268H6.95215L7.67639 15.8008H9.15307L9.22685 18.1639L10.2623 15.8008H11.7823L11.0443 19.6268Z" fill="white"/>
<path d="M21.5333 19.5828C21.2672 19.6561 21.0751 19.6856 20.8532 19.6856C20.3809 19.6856 20.1143 19.4494 20.1143 19.0067C20.1143 18.9177 20.1295 18.8287 20.1438 18.7254L20.2027 18.4151L20.248 18.1791L20.676 15.801H21.6065L21.4741 16.5095H21.961L21.8284 17.2636H21.341L21.1047 18.5632C21.0895 18.6224 21.0752 18.6668 21.0752 18.6961C21.0752 18.8589 21.1788 18.9321 21.4007 18.9321C21.5038 18.9321 21.5917 18.9175 21.6516 18.9028L21.5333 19.5828Z" fill="white"/>
<path d="M24.2662 16.5397C24.1922 16.5095 24.1779 16.5095 24.1632 16.5095C24.1184 16.4943 24.0891 16.4943 24.0891 16.4802C24.059 16.4802 24.0297 16.4802 23.986 16.4802C23.6751 16.4802 23.4538 16.6132 23.1728 16.982L23.2612 16.5095H22.404L21.8281 19.6268H22.7737C23.1133 17.7204 23.2465 17.381 23.7041 17.381C23.7336 17.381 23.7787 17.396 23.8224 17.396L23.926 17.4253L24.2662 16.5397Z" fill="white"/>
<path d="M17.8098 17.499C17.8098 17.8834 18.0317 18.1639 18.534 18.3565C18.9184 18.5184 18.9776 18.5632 18.9776 18.711C18.9776 18.9028 18.7999 18.9918 18.4307 18.9918C18.1499 18.9918 17.8836 18.9474 17.5736 18.8592L17.4553 19.5831H17.5001L17.662 19.6271C17.7209 19.6271 17.8093 19.642 17.913 19.642C18.1349 19.671 18.3123 19.671 18.4452 19.671C19.435 19.671 19.9078 19.3461 19.9078 18.6373C19.9078 18.2086 19.7157 17.9578 19.2283 17.7657C18.829 17.6178 18.785 17.5736 18.785 17.4258C18.785 17.2639 18.9475 17.1749 19.2578 17.1749C19.4349 17.1749 19.7005 17.1901 19.9368 17.2188L20.07 16.51C19.8191 16.4664 19.4499 16.4512 19.2427 16.4512C18.1795 16.4507 17.8098 16.9231 17.8098 17.499Z" fill="white"/>
<path d="M14.0875 19.6268H13.319L13.3342 19.3013C13.098 19.5527 12.773 19.6707 12.3444 19.6707C11.8426 19.6707 11.4878 19.3311 11.4878 18.8288C11.4878 18.0749 12.0927 17.632 13.1425 17.632C13.245 17.632 13.3784 17.632 13.5262 17.6472C13.5558 17.5439 13.5558 17.499 13.5558 17.4551C13.5558 17.2484 13.3927 17.1743 12.9498 17.1743C12.6837 17.1743 12.3891 17.2039 12.1819 17.2484L12.0493 17.2929L11.9603 17.3073L12.0929 16.6132C12.5663 16.4943 12.8614 16.4507 13.2164 16.4507C14.0283 16.4507 14.4423 16.7605 14.4423 17.3512C14.4423 17.514 14.4276 17.6322 14.3688 17.9721L14.1767 19.0802L14.1472 19.272L14.117 19.4351L14.1024 19.5379L14.0875 19.6268ZM13.408 18.2377C13.3038 18.2231 13.2602 18.2231 13.2013 18.2231C12.6691 18.2231 12.4035 18.3855 12.4035 18.6961C12.4035 18.8879 12.5212 19.0211 12.7279 19.0211C13.1129 19.0211 13.3931 18.6961 13.408 18.2377Z" fill="white"/>
<path d="M17.1746 19.5528C16.8502 19.6415 16.5399 19.6855 16.2143 19.6855C15.1668 19.6855 14.6191 19.1978 14.6191 18.282C14.6191 17.2181 15.3138 16.4353 16.2594 16.4353C17.0273 16.4353 17.5159 16.8785 17.5159 17.558C17.5159 17.794 17.4857 18.0167 17.4122 18.3265H15.5352C15.5352 18.3854 15.5352 18.4 15.5352 18.4301C15.5352 18.7847 15.8012 18.9764 16.3479 18.9764C16.6877 18.9764 16.9978 18.9176 17.3224 18.785L17.1746 19.5528ZM16.6728 17.7067C16.6728 17.6473 16.6728 17.5879 16.6728 17.5439C16.6728 17.293 16.5097 17.1446 16.2296 17.1446C15.9339 17.1446 15.7272 17.3513 15.638 17.7067H16.6728Z" fill="white"/>
<path d="M27.1908 18.2083C27.043 19.2418 26.3193 19.6999 25.3585 19.6999C24.3104 19.6999 23.8823 19.0652 23.8823 18.2675C23.8823 17.1741 24.6055 16.4199 25.7282 16.4199C26.7033 16.4199 27.2204 17.0405 27.2204 17.8236C27.2207 18.0168 27.2207 18.0312 27.1908 18.2083ZM26.2162 17.809C26.2162 17.4841 26.0829 17.1895 25.6997 17.1895C25.2259 17.1895 24.9308 17.7502 24.9308 18.2528C24.9308 18.6667 25.138 18.9472 25.463 18.9472C25.6697 18.9472 26.1129 18.6667 26.1867 18.1939C26.2162 18.0752 26.2162 17.9428 26.2162 17.809Z" fill="white"/>
</g>
<defs>
<clipPath id="clip0_2352_48983">
<rect width="35" height="35" fill="white" transform="translate(0 0.568359)"/>
</clipPath>
</defs>
</svg>
