<svg width="32" height="31" viewBox="0 0 32 31" fill="none" xmlns="http://www.w3.org/2000/svg">
<path d="M0 18.8562C0.22 18.3862 0.620001 18.1662 1.11 18.0362C1.65 17.8962 2.18001 17.6862 2.71001 17.5162C3.35001 17.3062 3.93 17.5762 4.12 18.1662C4.31 18.7462 4.01 19.3062 3.36 19.5262C2.8 19.7162 2.24 19.8962 1.67 20.0762C0.799998 20.3562 0.46 20.2262 0 19.4662C0 19.2662 0 19.0662 0 18.8562Z" fill="#F7421E"/>
<path d="M27.5401 11.4662C27.5401 12.1862 27.2401 12.7662 26.7401 13.2562C25.5901 14.3762 24.4401 15.5062 23.2801 16.6162C23.1201 16.7662 23.0501 16.9062 23.1001 17.1362C23.3901 18.7362 23.6501 20.3362 23.9201 21.9362C24.0901 22.9362 23.8001 23.7662 22.9901 24.3762C22.1601 24.9962 21.2601 25.0562 20.3401 24.5762C18.9201 23.8362 17.4901 23.0962 16.0801 22.3362C15.8401 22.2062 15.6601 22.1962 15.4101 22.3262C14.0201 23.0762 12.6001 23.7962 11.2101 24.5462C9.63007 25.4062 8.00007 24.4962 7.58007 23.1262C7.40007 22.5162 7.54007 21.9262 7.64007 21.3362C7.88007 19.9162 8.12007 18.4962 8.38007 17.0762C8.42007 16.8762 8.35006 16.7762 8.23006 16.6562C7.05006 15.5162 5.88007 14.3762 4.71007 13.2262C3.61007 12.1462 3.68007 10.4562 4.85007 9.49624C5.36007 9.07624 5.98007 8.99624 6.60007 8.90624C8.07007 8.69624 9.53007 8.49624 11.0001 8.26624C11.1201 8.24624 11.2701 8.12625 11.3301 8.00625C12.0701 6.52625 12.8001 5.03625 13.5401 3.55625C14.2801 2.08625 16.1301 1.68624 17.3501 2.76624C17.6301 3.00624 17.8401 3.34624 18.0101 3.67624C18.7301 5.09624 19.4301 6.52624 20.1301 7.96624C20.2301 8.17624 20.3601 8.26624 20.5901 8.29624C22.2501 8.52624 23.9101 8.75624 25.5601 9.02624C26.7401 9.22623 27.5501 10.2462 27.5401 11.4662ZM15.7401 19.8562C16.0001 19.9662 16.2501 20.0462 16.4801 20.1662C18.0601 20.9962 19.6401 21.8362 21.2301 22.6562C21.3601 22.7262 21.5901 22.7462 21.7001 22.6762C21.7901 22.6262 21.8401 22.3862 21.8101 22.2562C21.5201 20.4962 21.2301 18.7262 20.9101 16.9762C20.8001 16.3862 20.9201 15.9362 21.3701 15.5162C22.6601 14.2962 23.9301 13.0362 25.2001 11.7862C25.3101 11.6762 25.4301 11.4462 25.3901 11.3262C25.3501 11.1962 25.1201 11.0862 24.9601 11.0562C23.1301 10.7762 21.3001 10.5062 19.4701 10.2562C19.0301 10.1962 18.7401 9.96625 18.5501 9.58625C18.1501 8.75625 17.7401 7.93625 17.3301 7.11625C16.9301 6.29625 16.5301 5.47624 16.1201 4.67624C16.0401 4.52624 15.8801 4.35624 15.7301 4.31624C15.4801 4.24624 15.4101 4.51624 15.3201 4.68624C15.3101 4.70624 15.3001 4.72624 15.2901 4.74624C14.4901 6.35624 13.6901 7.96625 12.9001 9.58625C12.7301 9.93625 12.4801 10.1962 12.0801 10.2562C10.8101 10.4462 9.53006 10.6262 8.26006 10.8162C7.64006 10.9062 7.02007 10.9762 6.41007 11.0862C6.27007 11.1062 6.08007 11.2362 6.05007 11.3462C6.02007 11.4562 6.14007 11.6262 6.21007 11.7662C6.25007 11.8462 6.34006 11.8962 6.40006 11.9662C7.65006 13.1862 8.91007 14.4162 10.1601 15.6262C10.4901 15.9462 10.6501 16.2962 10.5501 16.7562C10.4901 17.0662 10.4501 17.3762 10.3901 17.6962C10.1301 19.2362 9.86007 20.7762 9.61007 22.3162C9.59007 22.4362 9.63007 22.6362 9.72007 22.6862C9.82007 22.7562 10.0001 22.7162 10.1401 22.7062C10.2001 22.7062 10.2501 22.6562 10.3001 22.6262C11.8801 21.7962 13.4701 20.9562 15.0501 20.1362C15.2801 20.0262 15.5001 19.9562 15.7401 19.8562Z" fill="#F7421E"/>
<path d="M31.46 19.176C31.46 19.886 30.81 20.386 30.11 20.186C29.4 19.976 28.69 19.736 27.99 19.496C27.43 19.296 27.16 18.736 27.34 18.186C27.52 17.626 28.08 17.326 28.65 17.506C29.35 17.726 30.05 17.946 30.74 18.186C31.21 18.336 31.46 18.716 31.46 19.176Z" fill="#F7421E"/>
<path d="M6.18002 0.546143C6.55002 0.546143 6.83001 0.71614 7.04001 0.99614C7.45001 1.55614 7.87002 2.11614 8.27002 2.68614C8.63002 3.19614 8.52001 3.83615 8.04001 4.17615C7.56001 4.51615 6.93002 4.41615 6.57002 3.92615C6.14002 3.35615 5.72001 2.77614 5.31001 2.18614C5.07001 1.83614 5.05001 1.45615 5.25001 1.08615C5.45001 0.736151 5.77002 0.546143 6.18002 0.546143Z" fill="#F7421E"/>
<path d="M24.06 4.37616C23.2 4.36616 22.69 3.46617 23.14 2.78617C23.56 2.14617 24.02 1.52617 24.49 0.926166C24.84 0.476166 25.48 0.426163 25.92 0.766163C26.37 1.10616 26.48 1.71616 26.16 2.18616C25.74 2.79616 25.3 3.38617 24.86 3.97617C24.65 4.24617 24.36 4.38616 24.06 4.37616Z" fill="#F7421E"/>
<path d="M14.68 28.3961C14.68 28.0361 14.67 27.6761 14.68 27.3261C14.69 26.7561 15.16 26.3062 15.73 26.3062C16.3 26.3062 16.76 26.7562 16.77 27.3362C16.78 28.0662 16.78 28.7861 16.77 29.5161C16.76 30.1161 16.3 30.5561 15.71 30.5461C15.13 30.5361 14.69 30.0961 14.68 29.5061C14.68 29.1361 14.68 28.7661 14.68 28.3961Z" fill="#F7421E"/>
</svg>
