<svg width="71" height="71" viewBox="0 0 71 71" fill="none" xmlns="http://www.w3.org/2000/svg">
<path d="M36.9109 0.5C37.8441 0.674988 38.7891 0.791648 39.7107 1.02497C48.1334 3.07816 53.7797 8.18782 56.6145 16.3773C56.8129 16.9372 57.0928 17.1122 57.6645 17.2055C62.6808 18.0338 66.4372 20.6936 68.6071 25.3017C72.3402 33.2461 68.3154 42.3922 59.951 45.0637C58.7144 45.4603 57.3728 45.5653 56.0779 45.7286C55.2963 45.822 54.4914 45.7403 53.6514 45.7403C53.6281 45.927 53.5931 46.0786 53.5931 46.2186C53.5931 48.0618 53.5814 49.905 53.5931 51.7482C53.6047 53.2415 54.433 54.0581 55.9379 54.0697C55.9613 54.0697 55.9846 54.0697 56.0079 54.0697C57.2678 54.2447 58.1078 53.9531 58.8427 52.6582C60.266 50.1383 63.7424 49.2751 66.3439 50.5C69.1904 51.8416 70.6253 54.9214 69.7387 57.8145C68.9571 60.3693 66.8455 62.0959 64.2907 62.2592C61.6892 62.4342 59.3444 61.0459 58.2594 58.6428C58.0844 58.2695 57.8861 58.1761 57.5012 58.1645C56.2996 58.1061 55.063 58.1761 53.9197 57.8728C51.2599 57.1729 49.545 54.8164 49.51 52.0749C49.4867 50.2083 49.51 48.3418 49.51 46.4753C49.51 46.2536 49.51 46.032 49.51 45.7753C45.357 45.7753 41.2622 45.7753 37.1092 45.7753C37.0975 45.962 37.0742 46.1603 37.0742 46.3586C37.0742 50.2083 37.0742 54.0581 37.0625 57.9078C37.0625 58.3511 37.1675 58.5728 37.5992 58.7711C40.294 59.9727 41.7639 63.0875 40.9823 65.8523C40.119 68.9088 37.2958 70.8453 34.286 70.4487C31.2529 70.052 28.9664 67.5438 28.8731 64.534C28.8031 62.0259 30.1913 59.8094 32.4662 58.7361C32.6761 58.6311 32.9445 58.3511 32.9445 58.1528C32.9678 54.0581 32.9678 49.9517 32.9678 45.8103C28.8264 45.8103 24.72 45.8103 20.5553 45.8103C20.5436 46.0203 20.5203 46.2419 20.5203 46.4636C20.5203 48.3068 20.532 50.15 20.5203 51.9932C20.497 55.493 17.8255 58.1528 14.3374 58.1995C14.1974 58.1995 14.0574 58.2111 13.9291 58.1995C12.7158 58.0478 11.9225 58.3278 11.1993 59.5644C9.90434 61.7692 7.71115 62.6325 5.15632 62.1892C2.4965 61.7226 0.863276 60.066 0.163322 57.4762C0.104993 57.3362 0.0466635 57.2195 0 57.0912C0 56.4496 0 55.8196 0 55.178C0.0466635 55.0497 0.104993 54.933 0.139991 54.8047C0.85161 52.1915 2.50817 50.5233 5.19132 50.08C7.74615 49.66 9.90434 50.5583 11.2109 52.7515C11.8992 53.9181 12.6225 54.2564 13.8124 54.0814C13.8824 54.0698 13.9524 54.0814 14.0224 54.0814C15.5623 54.0698 16.3906 53.2531 16.4022 51.7249C16.4139 49.905 16.4022 48.0852 16.4022 46.2653C16.4022 46.0903 16.3672 45.927 16.3556 45.7986C14.9907 45.7286 13.6841 45.7753 12.4125 45.577C6.88287 44.7254 3.0448 41.6456 0.956603 36.4659C0.513299 35.381 0.314979 34.1794 0 33.0362C0 31.9862 0 30.9363 0 29.898C0.0466635 29.793 0.116659 29.688 0.128325 29.5831C0.349977 27.5882 0.9916 25.7216 2.0532 24.0301C4.45637 20.1454 7.92114 17.8238 12.4592 17.1939C13.0075 17.1239 13.2175 16.8672 13.3808 16.3889C16.2272 8.19948 21.8619 3.07816 30.2846 1.02497C31.2062 0.803314 32.1512 0.674988 33.0845 0.5C34.356 0.5 35.6276 0.5 36.9109 0.5ZM52.5782 17.2639C51.6449 14.5457 50.245 12.2009 48.2501 10.2294C43.6421 5.66799 38.0891 3.76645 31.7312 4.93304C25.2216 6.12296 20.5786 9.91437 17.9071 15.9923C17.4288 17.0889 17.1605 18.2671 16.7989 19.4221C16.4489 20.5653 15.8306 21.0553 14.629 21.137C14.1741 21.1603 13.7191 21.2069 13.2641 21.2536C5.9496 21.9536 1.73822 30.1897 5.49463 36.4893C7.53616 39.919 10.651 41.5989 14.6174 41.6222C19.6454 41.6572 24.685 41.6339 29.713 41.6339C38.2524 41.6339 46.7919 41.6456 55.3313 41.6339C61.8642 41.6223 66.6705 36.2443 65.7023 29.863C64.734 23.4935 58.3528 19.6671 52.0415 21.7086C50.2916 22.2802 48.7634 23.2601 47.2818 24.3334C46.2436 25.08 45.0187 24.87 44.342 23.9018C43.6771 22.9568 43.8871 21.7786 44.8787 21.0086C46.5586 19.7021 48.3668 18.6055 50.3733 17.9055C51.0966 17.6722 51.8315 17.4855 52.5782 17.2639ZM8.18945 56.1229C8.17779 55.038 7.20952 54.0698 6.12459 54.0931C5.05133 54.1164 4.12972 55.038 4.10639 56.1113C4.08306 57.1962 5.05133 58.1761 6.13626 58.1761C7.23285 58.1878 8.20112 57.2079 8.18945 56.1229ZM63.8124 58.1761C64.8973 58.1995 65.8773 57.2312 65.8773 56.1463C65.8889 55.0847 64.9673 54.1398 63.8941 54.0931C62.8208 54.0464 61.8292 54.9914 61.7942 56.088C61.7592 57.1729 62.7158 58.1528 63.8124 58.1761ZM37.0392 64.3124C37.0159 63.2158 36.0243 62.2592 34.951 62.2942C33.8777 62.3292 32.9561 63.2625 32.9561 64.3357C32.9561 65.4207 33.9244 66.3889 35.0093 66.3889C36.0943 66.3656 37.0509 65.3857 37.0392 64.3124Z" fill="#4D4E50"/>
<path d="M20.7185 20.7403C20.9868 18.9671 21.5701 17.3806 22.4567 15.9457C25.3149 11.3726 29.3979 8.87613 34.8342 8.70115C36.1175 8.65448 37.0157 9.51776 37.0391 10.696C37.0624 11.8976 36.2108 12.7375 34.9276 12.7959C29.9346 13.0175 26.1548 16.0973 24.8599 20.9853C24.5916 22.0236 23.9266 22.6652 23.04 22.7702C22.1767 22.8635 21.3251 22.4202 20.9635 21.6386C20.8235 21.3353 20.7885 20.997 20.7185 20.7403Z" fill="#4D4E50"/>
</svg>
