<svg width="44" height="51" viewBox="0 0 44 51" fill="none" xmlns="http://www.w3.org/2000/svg">
<path d="M21.3269 50.0623C19.6169 49.3423 17.8569 48.7223 16.1869 47.8923C8.30687 43.9823 3.49686 37.6823 1.70686 29.0723C1.04686 25.9123 0.756858 22.7123 0.736858 19.4923C0.716858 16.9223 0.776854 14.3523 0.826854 11.7823C0.876854 9.46228 2.94686 7.19228 5.26686 6.91228C7.19686 6.68228 9.14687 6.54228 11.0269 6.01228C14.0369 5.17228 16.7069 3.72228 19.0269 1.63228C19.4569 1.24228 19.8869 0.822283 20.3769 0.522283C21.5869 -0.227717 23.0069 -0.0677176 24.1669 0.912282C24.9269 1.55228 25.6569 2.22228 26.4469 2.82228C29.0769 4.83228 32.0769 6.01228 35.3369 6.51228C36.4269 6.68228 37.5269 6.76228 38.6269 6.90228C41.1569 7.23228 43.1369 9.45228 43.1769 12.0123C43.2169 14.7323 43.3069 17.4423 43.2469 20.1623C43.1569 24.1823 42.7269 28.1623 41.5269 32.0223C39.6569 38.0223 36.1169 42.7623 30.8269 46.1723C28.3069 47.8023 25.6069 49.0723 22.7569 49.9823C22.7269 49.9923 22.7169 50.0223 22.6869 50.0523C22.2369 50.0623 21.7769 50.0623 21.3269 50.0623ZM3.74687 17.0423C3.68687 17.0423 3.63685 17.0423 3.57685 17.0423C3.69685 19.3123 3.79687 21.5923 3.93687 23.8623C4.07687 26.1323 4.49686 28.3723 5.11686 30.5623C6.52686 35.5223 9.21685 39.6123 13.3569 42.7223C15.8869 44.6223 18.6969 45.9823 21.6669 47.0223C21.8969 47.1023 22.2269 47.0723 22.4569 46.9723C24.1769 46.2223 25.9469 45.5523 27.5969 44.6623C31.6269 42.4823 34.8069 39.4223 36.9669 35.3423C38.9969 31.5023 39.7969 27.3523 40.1569 23.0923C40.4569 19.4823 40.3069 15.8723 40.2569 12.2623C40.2369 11.0723 39.5769 10.1723 38.5169 9.89228C38.1769 9.80228 37.8069 9.79228 37.4569 9.74228C35.7269 9.46228 33.9769 9.29228 32.2769 8.87228C28.5769 7.95228 25.3669 6.10228 22.5969 3.47228C22.0069 2.91228 22.0169 2.95228 21.3769 3.46228C20.0769 4.49228 18.8169 5.58228 17.4169 6.46228C14.0969 8.53228 10.4069 9.48228 6.52687 9.73228C4.58687 9.85228 3.73688 10.7023 3.72688 12.6523C3.74688 14.1123 3.74687 15.5823 3.74687 17.0423Z" fill="#202124"/>
<path d="M9.52686 25.1323C9.56686 18.3323 14.8469 12.6523 21.9469 12.6023C28.7669 12.5523 34.4168 17.9423 34.4568 25.0123C34.4968 31.7823 29.1668 37.4523 22.0768 37.5123C15.3468 37.5923 9.68686 32.2823 9.52686 25.1323ZM22.0069 34.5623C27.2569 34.5623 31.4769 30.3523 31.4969 25.0923C31.5169 19.8323 27.2669 15.5723 22.0069 15.5723C16.7569 15.5723 12.5368 19.7823 12.5168 25.0423C12.4868 30.2923 16.7369 34.5623 22.0069 34.5623Z" fill="#202124"/>
<path d="M19.7869 26.9923C20.4969 26.2823 21.1668 25.6123 21.8268 24.9423C23.0368 23.7323 24.2469 22.5323 25.4469 21.3223C25.9369 20.8323 26.4969 20.6123 27.1669 20.8723C28.0769 21.2323 28.3868 22.3723 27.7768 23.1423C27.6768 23.2723 27.5569 23.3823 27.4469 23.5023C25.3169 25.6323 23.1969 27.7623 21.0669 29.8823C20.1869 30.7623 19.4268 30.7723 18.5468 29.8923C17.7468 29.1023 16.9468 28.3223 16.1768 27.5023C15.3568 26.6323 15.7168 25.3423 16.8368 25.0223C17.4168 24.8623 17.8968 25.0623 18.2968 25.4623C18.7868 25.9623 19.2669 26.4623 19.7869 26.9923Z" fill="#202124"/>
</svg>
