<svg width="78" height="71" viewBox="0 0 78 71" fill="none" xmlns="http://www.w3.org/2000/svg">
<path d="M0.907878 63.2196C1.44455 61.9713 2.40122 61.5279 3.7429 61.5629C6.21626 61.6329 8.7013 61.5746 11.1863 61.5979C11.6413 61.5979 11.863 61.4929 12.073 61.0496C13.3097 58.5062 15.3514 57.1179 18.2097 57.1295C21.0331 57.1412 23.0398 58.5412 24.2648 61.0613C24.4631 61.4579 24.6615 61.5979 25.0931 61.5863C27.4265 61.5629 29.7599 61.5746 32.0932 61.5863C32.4782 61.5863 32.7116 61.5279 32.8866 61.1196C33.5633 59.5212 34.7299 58.4012 36.305 57.6662C36.5033 57.5729 36.7599 57.3162 36.7599 57.1295C36.7949 54.6795 36.7833 52.2295 36.7833 49.6745C36.445 49.6745 36.165 49.6745 35.8733 49.6745C28.5582 49.6745 21.2314 49.6045 13.9164 49.6978C7.95462 49.7795 1.93455 45.4394 1.08287 38.3343C0.406198 32.7226 4.06958 26.9125 9.47131 25.1275C10.078 24.9292 10.1946 24.6375 10.113 24.0658C9.08629 16.9957 13.4964 9.79733 20.3098 7.4173C23.9498 6.14562 27.5899 6.16896 31.2066 7.55731C31.6266 7.72065 31.8482 7.63897 32.1399 7.3123C37.3083 1.39723 43.8067 -0.796123 51.3318 1.24557C58.7402 3.25226 63.2086 8.35064 64.7603 15.9107C64.9586 16.8557 65.0053 17.8241 65.1219 18.7341C66.3703 19.2708 67.6886 19.7258 68.8903 20.3908C74.7821 23.6342 77.5471 29.8409 76.8821 35.7443C76.0537 43.176 70.372 48.3328 64.2936 49.3945C63.3486 49.5578 62.3803 49.6745 61.4236 49.6745C55.0185 49.6978 48.6251 49.6861 42.22 49.6861C41.9284 49.6861 41.6367 49.6861 41.24 49.6861C41.24 50.2928 41.24 50.8528 41.24 51.4128C41.24 53.2212 41.2517 55.0295 41.2283 56.8496C41.2283 57.2929 41.3217 57.5495 41.765 57.7479C43.305 58.4129 44.4251 59.5446 45.1017 61.0846C45.2767 61.4929 45.4984 61.6213 45.9301 61.6213C48.2634 61.5979 50.5968 61.5979 52.9301 61.6213C53.3618 61.6213 53.5601 61.4929 53.7585 61.0846C54.9952 58.5412 57.0369 57.1412 59.8836 57.1529C62.7069 57.1646 64.7253 58.5529 65.9386 61.0729C66.1486 61.5046 66.382 61.6213 66.837 61.6096C69.462 61.5863 72.0987 61.5979 74.7237 61.5979C76.1587 61.5979 77.1271 62.5313 77.1154 63.8613C77.1037 65.1563 76.1354 66.0547 74.7354 66.0547C72.1104 66.0547 69.4737 66.0663 66.8486 66.043C66.4053 66.043 66.1603 66.1363 65.9503 66.5797C64.7136 69.123 62.6719 70.523 59.8136 70.4997C56.9902 70.488 54.9835 69.088 53.7585 66.568C53.5601 66.1713 53.3735 66.0313 52.9301 66.0313C50.5968 66.0547 48.2634 66.0547 45.9301 66.0313C45.4984 66.0313 45.3001 66.1713 45.1017 66.568C43.8651 69.1114 41.8234 70.5114 38.965 70.4997C36.1416 70.488 34.1349 69.088 32.8982 66.5797C32.7116 66.1947 32.5133 66.0313 32.0816 66.043C29.7482 66.0663 27.4149 66.0663 25.0815 66.043C24.6498 66.043 24.4515 66.1713 24.2531 66.568C23.0164 69.1114 20.9748 70.5114 18.1281 70.4997C15.3047 70.488 13.2864 69.088 12.0613 66.5797C11.8513 66.148 11.618 66.0313 11.163 66.043C8.67794 66.0663 6.20461 66.008 3.71958 66.078C2.36623 66.113 1.42119 65.6696 0.884521 64.4213C0.907855 64.0246 0.907878 63.628 0.907878 63.2196ZM35.6399 10.1123C35.8966 10.3573 36.0716 10.5207 36.2583 10.6957C39.49 13.8224 41.2167 17.6258 41.24 22.1525C41.2517 23.4242 40.2833 24.3808 39.0467 24.3925C37.7983 24.4042 36.8416 23.4825 36.7833 22.2225C36.76 21.7558 36.7133 21.2891 36.6666 20.8108C35.9899 14.5224 29.8765 9.984 23.6698 11.174C16.9964 12.4457 13.0413 19.0024 15.013 25.5008C15.1297 25.8975 15.2464 26.3175 15.2347 26.7375C15.223 28.0442 14.3247 28.7909 12.6097 28.9892C7.95463 29.5259 4.62958 34.2859 5.74959 38.8477C6.71794 42.791 9.91465 45.2411 14.138 45.2411C29.7599 45.2411 45.3934 45.2411 61.0152 45.2294C61.7852 45.2294 62.5669 45.1944 63.3019 45.0311C67.8053 44.0627 70.8737 41.4027 72.0637 36.9227C73.2537 32.4776 71.9587 28.6626 68.552 25.5825C67.432 24.5675 66.1253 23.8442 64.6086 23.4475C64.5386 23.6692 64.4803 23.7975 64.4453 23.9375C63.7453 26.5392 62.5552 28.8726 60.8636 30.9609C60.1636 31.8243 59.0785 32.0809 58.1219 31.6259C57.2002 31.1826 56.6402 30.2026 56.9085 29.1642C57.0602 28.5925 57.4452 28.0675 57.8069 27.5659C60.2686 24.0892 61.1786 20.2508 60.2219 16.0857C58.4719 8.52565 51.4368 3.94059 43.7834 5.31727C40.5167 5.90061 37.845 7.53396 35.6399 10.1123ZM20.4031 63.8496C20.4264 62.6713 19.3648 61.5979 18.1864 61.5979C17.0431 61.5863 15.993 62.6013 15.9464 63.7563C15.8997 64.923 16.938 66.0197 18.1281 66.0547C19.2947 66.0897 20.3798 65.0396 20.4031 63.8496ZM41.24 63.8496C41.2633 62.6713 40.2017 61.5979 39.0233 61.5979C37.88 61.5863 36.83 62.6013 36.7833 63.7563C36.7366 64.923 37.775 66.0197 38.965 66.0547C40.1317 66.0897 41.2167 65.0396 41.24 63.8496ZM62.0769 63.8263C62.0886 62.648 61.0152 61.5863 59.8369 61.5863C58.6819 61.5979 57.6552 62.6129 57.6202 63.768C57.5852 64.9346 58.6352 66.0197 59.8252 66.043C60.9919 66.0663 62.0769 65.0046 62.0769 63.8263Z" fill="#4D4E50"/>
</svg>
