<svg width="30" height="31" viewBox="0 0 30 31" fill="none" xmlns="http://www.w3.org/2000/svg">
<path d="M8.02002 0.0529785C12.08 0.0529785 16.15 0.0529785 20.21 0.0529785C20.41 0.0929785 20.61 0.132979 20.81 0.162979C23.02 0.502979 24.85 1.54297 26.24 3.27297C28.19 5.71297 28.72 8.46298 27.83 11.473C27.77 11.693 27.8 11.823 27.95 11.993C28.83 13.023 29.42 14.193 29.74 15.503C29.85 15.933 29.91 16.373 30 16.813C30 17.363 30 17.903 30 18.453C29.98 18.503 29.95 18.563 29.94 18.613C29.81 19.843 29.44 20.993 28.81 22.053C27.65 24.023 25.99 25.383 23.8 26.073C22.97 26.333 22.12 26.543 21.2 26.463C21.2 26.603 21.2 26.713 21.2 26.813C21.2 27.593 21.21 28.373 21.2 29.153C21.19 29.713 20.74 30.123 20.2 30.023C20.01 29.993 19.82 29.883 19.65 29.763C18.08 28.713 16.51 27.653 14.93 26.613C14.8 26.523 14.61 26.473 14.45 26.473C13.08 26.463 11.72 26.493 10.35 26.463C7.99001 26.413 5.94 25.553 4.31 23.843C1.91 21.323 1.2 18.343 2.16 14.983C2.22 14.773 2.19002 14.633 2.05002 14.463C0.690018 12.823 0 10.943 0 8.81297C0 7.05297 0.490001 5.42297 1.47 3.96297C2.69 2.14297 4.37001 0.932974 6.48001 0.352974C6.98001 0.222974 7.51002 0.152979 8.02002 0.0529785ZM10.54 18.613C10.66 18.543 10.74 18.503 10.82 18.443C11.96 17.693 13.1 16.943 14.24 16.183C14.57 15.963 14.91 15.863 15.31 15.863C16.63 15.883 17.95 15.883 19.26 15.863C19.79 15.853 20.33 15.813 20.86 15.703C22.45 15.393 23.79 14.613 24.8 13.363C26.61 11.143 27.02 8.63297 25.86 6.02297C24.63 3.24297 22.36 1.85297 19.33 1.81297C15.85 1.77297 12.38 1.80298 8.90002 1.80298C7.89002 1.80298 6.9 1.98298 5.97 2.40298C3.09 3.68298 1.32002 6.75298 1.86002 9.94298C2.31002 12.543 3.79002 14.333 6.21002 15.363C7.28002 15.823 8.42001 15.883 9.57001 15.873C10.2 15.863 10.54 16.213 10.54 16.853C10.54 17.423 10.54 17.993 10.54 18.613ZM26.9 13.533C26.83 13.633 26.77 13.713 26.72 13.783C24.94 16.263 22.54 17.573 19.47 17.633C18.16 17.653 16.85 17.633 15.55 17.643C15.38 17.643 15.19 17.703 15.04 17.803C13.44 18.843 11.84 19.903 10.25 20.953C9.93 21.163 9.61001 21.243 9.26001 21.053C8.92001 20.873 8.78 20.573 8.78 20.183C8.79 19.483 8.78 18.773 8.78 18.073C8.78 17.933 8.78 17.793 8.78 17.653C6.9 17.643 5.23002 17.063 3.68002 16.013C3.63002 16.453 3.58002 16.823 3.55002 17.203C3.44002 18.593 3.73 19.903 4.44 21.103C5.85 23.513 7.99002 24.693 10.77 24.713C12.1 24.723 13.43 24.723 14.75 24.713C15.12 24.713 15.43 24.813 15.73 25.013C16.87 25.783 18.01 26.543 19.15 27.313C19.23 27.373 19.32 27.423 19.45 27.503C19.45 26.823 19.44 26.203 19.45 25.573C19.46 25.093 19.82 24.723 20.3 24.713C20.56 24.703 20.83 24.713 21.09 24.713C22.1 24.693 23.09 24.533 24.02 24.103C27.03 22.703 28.64 19.683 28.12 16.413C27.95 15.373 27.54 14.413 26.9 13.533Z" fill="#F7421E"/>
<path d="M10.54 8.83286C10.54 9.81286 9.75002 10.6029 8.77002 10.5929C7.80002 10.5929 7.02002 9.80285 7.02002 8.84285C7.02002 7.86285 7.81001 7.07286 8.79001 7.08286C9.76001 7.09286 10.54 7.87286 10.54 8.83286Z" fill="#F7421E"/>
<path d="M15.87 8.84285C15.87 9.82285 15.08 10.6029 14.1 10.5929C13.14 10.5829 12.36 9.80286 12.36 8.83286C12.36 7.85286 13.15 7.07286 14.13 7.08286C15.09 7.09286 15.87 7.88285 15.87 8.84285Z" fill="#F7421E"/>
<path d="M19.45 7.08301C20.43 7.08301 21.21 7.87301 21.2 8.86301C21.19 9.82301 20.41 10.603 19.44 10.603C18.46 10.603 17.68 9.81301 17.69 8.82301C17.7 7.86301 18.48 7.08301 19.45 7.08301Z" fill="#F7421E"/>
</svg>
