<svg width="88" height="27" viewBox="0 0 88 27" fill="none" xmlns="http://www.w3.org/2000/svg">
<path d="M17.7684 0.769531L13.2209 3.39973L0.235107 25.9268L26.2435 25.9103L30.791 23.2801L17.7684 0.769531ZM14.5753 6.04635L4.76207 23.075L1.15044 25.1636L13.3727 3.96187L14.5753 6.04635ZM13.6477 3.6254L17.1322 1.6107L14.8133 5.63602L13.6477 3.6254ZM14.8133 6.45668L24.3843 23.0052L5.26688 23.0175L14.8133 6.45668ZM4.96728 23.4279L24.6224 23.4156L25.829 25.5L1.35154 25.5164L4.96728 23.4279ZM25.0943 23.4156L29.7403 23.4115L26.2559 25.4262L25.0943 23.4156ZM24.8604 23.0052L15.0514 6.04635L17.6944 1.46299L30.1549 23.0052H24.8604Z" fill="#909192"/>
<path d="M17.7492 21.5995H19.9273L16.6496 14.1982H14.5878L11.3207 21.5995H13.4565L14.038 20.1615H17.1677L17.7492 21.5995ZM14.6512 18.6179L15.6028 16.2494L16.5544 18.6179H14.6512Z" fill="#909192"/>
<path d="M41.217 11.631C41.2271 11.5907 41.2321 11.5605 41.2321 11.5403C41.2321 11.5202 41.222 11.5101 41.2019 11.5101C41.1918 11.5101 41.1616 11.5353 41.1113 11.5856C41.071 11.636 41.0156 11.7065 40.9451 11.7971C40.8746 11.8877 40.7236 12.0589 40.492 12.3107C40.2704 12.5624 40.0388 12.7991 39.7972 13.0206C39.1426 13.6449 38.4881 14.1232 37.8336 14.4555C37.6725 14.5361 37.4962 14.5764 37.3049 14.5764C36.5698 14.5764 36.2023 14.0225 36.2023 12.9149C36.2023 11.928 36.6705 10.7398 37.607 9.35017C38.0501 8.7057 38.5787 8.07635 39.193 7.46209C39.8173 6.83777 40.4769 6.28393 41.1717 5.80058C41.8665 5.31724 42.6217 4.92955 43.4374 4.63753C44.253 4.33544 45.0485 4.18439 45.8239 4.18439C45.9548 4.18439 46.131 4.2297 46.3526 4.32033C46.7251 4.48145 46.9114 4.65263 46.9114 4.83389C46.9114 4.93459 46.846 4.98997 46.7151 5.00004C46.6647 5.00004 46.6396 5.02018 46.6396 5.06046C46.6396 5.10074 46.71 5.1813 46.851 5.30213C47.0021 5.4129 47.0776 5.52367 47.0776 5.63443C47.0776 5.73513 47.0423 5.82576 46.9719 5.90632C46.4684 6.46015 46.0656 6.92336 45.7635 7.29594C45.4614 7.65845 45.2298 7.93033 45.0687 8.11159C44.9176 8.29284 44.7414 8.50431 44.54 8.74598C44.3487 8.97759 44.1322 9.27464 43.8905 9.63716C43.6488 9.9896 43.4273 10.342 43.2259 10.6945C42.7627 11.5504 42.5311 12.3358 42.5311 13.0508C42.5311 13.7557 42.5966 14.4253 42.7275 15.0597C42.8584 15.7042 42.9943 16.0969 43.1353 16.2379C43.1353 16.2681 43.1 16.2832 43.0296 16.2832C42.5663 16.2832 42.1686 16.1019 41.8363 15.7394C41.2321 15.0647 40.93 14.1786 40.93 13.081C40.93 12.6883 41.0257 12.2049 41.217 11.631ZM43.1957 8.23243L46.0958 5.31724C46.1663 5.24675 46.2015 5.1964 46.2015 5.16619C46.2015 5.13598 46.1763 5.12088 46.126 5.12088C45.3506 5.24171 44.5299 5.55891 43.6639 6.07247C42.7979 6.58602 42.0125 7.18014 41.3076 7.85481C40.6027 8.52948 39.9532 9.21926 39.3591 9.92414C38.765 10.629 38.3018 11.2634 37.9695 11.8273C37.6473 12.3912 37.4862 12.794 37.4862 13.0357C37.4862 13.076 37.5113 13.0961 37.5617 13.0961C37.6221 13.0961 37.7329 13.0609 37.894 12.9904C38.0551 12.9098 38.6089 12.4668 39.5555 11.6612C40.5121 10.8455 41.7255 9.70261 43.1957 8.23243Z" fill="#909192"/>
<path d="M51.1725 4.15418C51.4645 3.91251 51.7968 3.79167 52.1694 3.79167C52.542 3.79167 52.7282 3.8672 52.7282 4.01824C52.7282 4.07866 52.6829 4.16929 52.5923 4.29012C52.5117 4.47138 52.1341 5.15612 51.4595 6.34435C49.6973 9.42569 48.8162 11.4799 48.8162 12.507C48.8162 12.5876 48.8363 12.6279 48.8766 12.6279C48.937 12.6279 49.0377 12.5272 49.1787 12.3258C49.5915 11.6108 50.1202 10.7901 50.7646 9.86372C51.4091 8.93731 52.0183 8.12166 52.5923 7.41678C53.1663 6.7119 53.8158 6.05233 54.5408 5.43807C55.2658 4.82382 55.9254 4.44117 56.5195 4.29012C57.5063 4.12901 58.1458 4.04845 58.4378 4.04845C58.468 4.05852 58.4831 4.08369 58.4831 4.12397C58.4831 4.15418 58.4277 4.1995 58.317 4.25991C57.1791 4.89431 55.7643 6.10268 54.0726 7.88502C52.3909 9.65729 50.8704 11.4799 49.511 13.3529C49.1485 13.9671 48.8665 14.3498 48.6651 14.5008C48.4637 14.6519 48.222 14.7274 47.9401 14.7274C47.4165 14.7274 47.1546 14.1736 47.1546 13.0659C47.1546 12.5826 47.2503 12.0891 47.4416 11.5856C48.1465 9.70261 48.8061 8.35326 49.4203 7.53762C49.7627 7.03413 49.9339 6.75721 49.9339 6.70686C49.9339 6.67665 49.8735 6.73707 49.7526 6.88812C47.2453 10.0399 45.473 12.1042 44.4358 13.081C43.7209 13.8262 42.9103 14.5915 42.004 15.3769C41.0977 16.1623 40.3727 16.7011 39.8289 16.9931C39.6577 17.1341 39.4765 17.2046 39.2851 17.2046C39.0938 17.2046 38.8622 17.124 38.5903 16.9629C38.3184 16.8018 38.1825 16.6155 38.1825 16.404C38.1825 16.2933 38.2429 16.1926 38.3638 16.1019L40.8409 14.0175C40.992 13.8866 41.0876 13.8211 41.1279 13.8211C41.1581 13.8211 41.1732 13.8413 41.1732 13.8816C41.1732 13.9118 41.1581 13.9571 41.1279 14.0175C41.0977 14.0779 41.0524 14.1434 40.992 14.2139C40.9215 14.2843 40.851 14.3498 40.7805 14.4102L40.5237 14.6821C40.2116 14.9943 40.0555 15.1654 40.0555 15.1957C40.0555 15.2359 40.0655 15.2561 40.0857 15.2561C40.1058 15.2561 40.1562 15.2259 40.2367 15.1654C41.2034 14.5008 42.5981 13.2522 44.4207 11.4195C46.2433 9.57674 47.8243 7.90516 49.1636 6.40477L51.1725 4.15418Z" fill="#909192"/>
<path d="M55.6726 11.631C55.6827 11.5907 55.6877 11.5605 55.6877 11.5403C55.6877 11.5202 55.6776 11.5101 55.6575 11.5101C55.6474 11.5101 55.6172 11.5353 55.5668 11.5856C55.5266 11.636 55.4712 11.7065 55.4007 11.7971C55.3302 11.8877 55.1792 12.0589 54.9476 12.3107C54.726 12.5624 54.4944 12.7991 54.2527 13.0206C53.5982 13.6449 52.9437 14.1232 52.2892 14.4555C52.128 14.5361 51.9518 14.5764 51.7605 14.5764C51.0254 14.5764 50.6579 14.0225 50.6579 12.9149C50.6579 11.928 51.1261 10.7398 52.0626 9.35017C52.5056 8.7057 53.0343 8.07635 53.6486 7.46209C54.2729 6.83777 54.9325 6.28393 55.6273 5.80058C56.3221 5.31724 57.0773 4.92955 57.893 4.63753C58.7086 4.33544 59.5041 4.18439 60.2795 4.18439C60.4104 4.18439 60.5866 4.2297 60.8081 4.32033C61.1807 4.48145 61.367 4.65263 61.367 4.83389C61.367 4.93459 61.3016 4.98997 61.1707 5.00004C61.1203 5.00004 61.0951 5.02018 61.0951 5.06046C61.0951 5.10074 61.1656 5.1813 61.3066 5.30213C61.4576 5.4129 61.5332 5.52367 61.5332 5.63443C61.5332 5.73513 61.4979 5.82576 61.4274 5.90632C60.924 6.46015 60.5212 6.92336 60.2191 7.29594C59.917 7.65845 59.6854 7.93033 59.5243 8.11159C59.3732 8.29284 59.197 8.50431 58.9956 8.74598C58.8043 8.97759 58.5878 9.27464 58.3461 9.63716C58.1044 9.9896 57.8829 10.342 57.6815 10.6945C57.2183 11.5504 56.9867 12.3358 56.9867 13.0508C56.9867 13.7557 57.0521 14.4253 57.183 15.0597C57.3139 15.7042 57.4499 16.0969 57.5909 16.2379C57.5909 16.2681 57.5556 16.2832 57.4851 16.2832C57.0219 16.2832 56.6242 16.1019 56.2919 15.7394C55.6877 15.0647 55.3856 14.1786 55.3856 13.081C55.3856 12.6883 55.4813 12.2049 55.6726 11.631ZM57.6513 8.23243L60.5514 5.31724C60.6219 5.24675 60.6571 5.1964 60.6571 5.16619C60.6571 5.13598 60.6319 5.12088 60.5816 5.12088C59.8062 5.24171 58.9855 5.55891 58.1195 6.07247C57.2535 6.58602 56.4681 7.18014 55.7632 7.85481C55.0583 8.52948 54.4088 9.21926 53.8147 9.92414C53.2206 10.629 52.7574 11.2634 52.4251 11.8273C52.1029 12.3912 51.9417 12.794 51.9417 13.0357C51.9417 13.076 51.9669 13.0961 52.0173 13.0961C52.0777 13.0961 52.1885 13.0609 52.3496 12.9904C52.5107 12.9098 53.0645 12.4668 54.0111 11.6612C54.9677 10.8455 56.1811 9.70261 57.6513 8.23243Z" fill="#909192"/>
<path d="M61.142 12.4164C61.867 11.5907 62.8035 10.483 63.9514 9.09339C65.0994 7.70377 65.9452 6.71693 66.489 6.13289C67.0328 5.54884 67.501 5.10577 67.8937 4.80368C68.8101 4.11894 69.7415 3.77657 70.6881 3.77657C70.8996 3.77657 71.1362 3.86216 71.398 4.03335C71.6699 4.20453 71.8058 4.47138 71.8058 4.83389C71.8058 5.18633 71.4685 5.7301 70.7938 6.46519C70.4615 6.8277 69.9782 7.20028 69.3438 7.58293C68.7195 7.95551 68.0196 8.2576 67.2442 8.48921C66.9522 8.53955 66.7357 8.56473 66.5947 8.56473C66.4638 8.56473 66.3984 8.54962 66.3984 8.51941C66.3984 8.4892 66.4336 8.45396 66.5041 8.41368C67.35 7.95047 68.2965 7.25063 69.3438 6.31414C70.4011 5.37766 70.9298 4.7634 70.9298 4.47138C70.9298 4.4311 70.8996 4.41096 70.8391 4.41096C70.7888 4.41096 70.7284 4.42103 70.6579 4.44117C70.5975 4.46131 70.527 4.48145 70.4464 4.50159C70.3659 4.52173 70.1947 4.60732 69.9329 4.75837C69.6711 4.89934 69.3941 5.0806 69.1021 5.30213C68.8202 5.5136 68.4627 5.8459 68.0297 6.29904C67.6068 6.74211 67.1788 7.25566 66.7458 7.83971C65.0843 10.1658 64.0068 11.5957 63.5134 12.1294C63.4328 12.22 63.3322 12.3308 63.2113 12.4617C63.4631 12.4919 63.8407 12.5272 64.3442 12.5674C64.8476 12.6077 65.185 12.643 65.3562 12.6732C65.5374 12.6933 65.7992 12.7437 66.1416 12.8242C66.484 12.9048 66.7559 13.0055 66.9573 13.1263C67.4809 13.4486 67.9844 13.8866 68.4677 14.4404C68.5785 14.5613 68.6339 14.6418 68.6339 14.6821C68.6339 14.7224 68.6188 14.7425 68.5886 14.7425C68.5382 14.7425 68.4728 14.7224 68.3922 14.6821C68.2411 14.6418 68.0196 14.5864 67.7276 14.5159C67.4456 14.4455 66.8314 14.3548 65.8848 14.2441C64.9383 14.1333 64.0672 14.0779 63.2717 14.0779C62.4863 14.0779 61.9123 14.0829 61.5498 14.093C61.0161 14.5965 60.2659 15.0647 59.2992 15.4977C58.3325 15.9307 57.6075 16.1472 57.1242 16.1472C56.6307 16.1472 56.1675 16.0163 55.7345 15.7545C55.3015 15.5028 55.085 15.1604 55.085 14.7274C55.085 14.4152 55.3217 14.0729 55.795 13.7003C56.8825 12.8444 58.6648 12.4164 61.142 12.4164ZM55.9158 15.1654C55.9158 15.2661 56.0366 15.3316 56.2783 15.3618C56.5905 15.3618 56.8573 15.3417 57.0788 15.3014C57.3004 15.2712 57.6276 15.1604 58.0606 14.9691C58.4836 14.7778 58.9317 14.4958 59.405 14.1232C58.7605 14.1232 58.0204 14.239 57.1846 14.4706C56.3387 14.7022 55.9158 14.9338 55.9158 15.1654Z" fill="#909192"/>
<path d="M75.7591 4.33544C76.4841 3.87223 77.0984 3.64062 77.6019 3.64062C78.0651 3.64062 78.3571 3.81685 78.4779 4.16929C78.5182 4.29012 78.5384 4.38579 78.5384 4.45627C78.5384 4.83892 78.3219 5.43807 77.8889 6.25372C77.4559 7.06937 76.8819 7.95551 76.1669 8.91213C75.452 9.85869 74.6817 10.77 73.8559 11.6461C73.0302 12.5221 72.1693 13.2522 71.273 13.8362C70.3768 14.4203 69.5914 14.7123 68.9167 14.7123C68.4434 14.7123 68.0054 14.5109 67.6026 14.1081C67.1998 13.7053 66.9984 13.2169 66.9984 12.643C66.9984 12.0589 67.1596 11.4094 67.4818 10.6945C67.804 9.96946 68.2471 9.2394 68.811 8.50431C69.385 7.76922 70.0143 7.08448 70.6991 6.45008C71.3838 5.80562 72.129 5.28199 72.9346 4.8792C73.7502 4.47641 74.5256 4.27502 75.2607 4.27502C75.4621 4.27502 75.6282 4.29516 75.7591 4.33544ZM68.524 13.5644C69.0376 13.5644 70.0395 12.9098 71.5298 11.6008C73.0201 10.2917 74.3947 8.92724 75.6534 7.50741C76.9222 6.0775 77.5566 5.18633 77.5566 4.83389C77.5566 4.80368 77.5364 4.78858 77.4961 4.78858C77.1538 4.78858 76.6704 4.98997 76.0461 5.39276C75.4318 5.79555 74.8428 6.24869 74.2789 6.75218C73.715 7.25566 73.2266 7.70377 72.8137 8.09649C72.4109 8.48921 72.1793 8.73088 72.1189 8.82151C72.0585 8.91213 72.0081 8.95745 71.9679 8.95745C71.9477 8.95745 71.9376 8.93227 71.9376 8.88192L71.9679 8.65536C72.0786 8.29284 72.416 7.70377 72.9799 6.88812L73.2669 6.46519C73.3373 6.33428 73.3726 6.25876 73.3726 6.23862C73.3726 6.20841 73.3625 6.1933 73.3424 6.1933C73.2618 6.1933 73.1259 6.2789 72.9346 6.45008C72.1793 7.13483 71.5097 7.82964 70.9256 8.53452C70.3416 9.22933 69.8935 9.83352 69.5813 10.3471C69.2792 10.8506 69.0325 11.3339 68.8412 11.7971C68.5391 12.502 68.3881 12.9753 68.3881 13.2169C68.3881 13.4486 68.4334 13.5644 68.524 13.5644Z" fill="#909192"/>
<path d="M86.9725 5.5287C87.2746 5.6294 87.4408 5.7301 87.471 5.83079L87.4861 5.89121C87.4861 6.10268 87.2746 6.39973 86.8517 6.78238C85.1297 8.71577 83.9063 10.2111 83.1813 11.2685C82.9698 11.5705 82.6727 12.0136 82.2901 12.5977C81.9074 13.1716 81.5953 13.6298 81.3536 13.9722C81.122 14.3246 80.8098 14.7627 80.4171 15.2863C80.0345 15.82 79.6921 16.258 79.39 16.6004C79.098 16.9428 78.7355 17.3254 78.3025 17.7483C77.8795 18.1713 77.4717 18.5237 77.079 18.8057C76.1929 19.44 75.2413 19.9083 74.2242 20.2104C73.9624 20.2104 73.7157 20.1449 73.4841 20.014C73.2424 19.8932 73.1166 19.717 73.1065 19.4854C73.1166 18.9416 73.5395 18.2669 74.3753 17.4613C75.2111 16.6658 76.3338 16.0566 77.7436 15.6337C77.945 15.5833 78.086 15.5078 78.1665 15.4071L82.4864 10.2564L82.713 9.95435C82.7332 9.91407 82.7432 9.8889 82.7432 9.87883C82.7432 9.85869 82.7332 9.84862 82.713 9.84862C82.7029 9.84862 82.4814 10.0702 82.0484 10.5132C81.6154 10.9462 81.2378 11.3339 80.9156 11.6763C80.6034 12.0186 80.1905 12.4315 79.677 12.9149C79.1634 13.3881 78.5341 13.8564 77.7889 14.3196C77.0538 14.7929 76.4345 15.0295 75.931 15.0295C75.2664 15.0295 74.8536 14.5915 74.6925 13.7154C74.6623 13.514 74.6472 13.3126 74.6472 13.1112C74.6472 12.2049 75.0399 11.2332 75.8253 10.196C76.6007 9.14877 77.5523 8.22236 78.6801 7.41678C79.818 6.60113 81.0414 5.92142 82.3505 5.37765C83.6596 4.82382 84.8226 4.54187 85.8397 4.5318H85.8548C86.177 4.5318 86.4439 4.64256 86.6553 4.8641C86.8769 5.07556 86.9876 5.26185 86.9876 5.42297C86.9876 5.47332 86.9826 5.50856 86.9725 5.5287ZM73.8617 19.4249C73.8617 19.4854 73.8869 19.5156 73.9372 19.5156H73.9674C74.2192 19.5156 74.8536 19.0322 75.8706 18.0655C76.8977 17.1089 77.5019 16.399 77.6832 15.9358C77.6832 15.9156 77.6731 15.9056 77.653 15.9056C76.9783 16.1472 76.1778 16.7313 75.2513 17.6577C74.3249 18.5942 73.8617 19.1833 73.8617 19.4249ZM86.4136 5.78548C86.4741 5.72506 86.5043 5.67975 86.5043 5.64954C86.5043 5.60926 86.459 5.58912 86.3683 5.58912C85.7541 5.58912 84.9686 5.80058 84.012 6.22351C83.0655 6.63637 82.0937 7.18517 81.0968 7.86992C80.11 8.55466 79.1383 9.40052 78.1816 10.4075C77.2351 11.4044 76.4849 12.4265 75.931 13.4737C75.9008 13.514 75.8857 13.5543 75.8857 13.5946C75.8857 13.6248 75.9109 13.6399 75.9613 13.6399C76.5252 13.6399 77.8594 12.8192 79.964 11.1778C82.0786 9.52639 84.2285 7.72894 86.4136 5.78548Z" fill="#909192"/>
<path d="M39.8092 19.7108V22.2846L37.7656 19.7108H37.4891V22.8828H37.8245V20.3089L39.8636 22.8828H40.14V19.7108H39.8092Z" fill="#909192"/>
<path d="M42.4532 22.9099C43.2643 22.9099 43.7537 22.4387 43.7537 21.5279V19.7108H43.4274V21.5143C43.4274 22.2665 43.074 22.6109 42.4532 22.6109C41.8369 22.6109 41.4834 22.2665 41.4834 21.5143V19.7108H41.1481V21.5279C41.1481 22.4387 41.642 22.9099 42.4532 22.9099Z" fill="#909192"/>
<path d="M47.2972 22.8828L46.5223 21.7952C46.9845 21.6457 47.2473 21.2968 47.2473 20.7983C47.2473 20.1186 46.7579 19.7108 45.9514 19.7108H44.7641V22.8828H45.0995V21.8768H45.9514C46.042 21.8768 46.1235 21.8723 46.2051 21.8632L46.9301 22.8828H47.2972ZM45.9423 21.5913H45.0995V20.0008H45.9423C46.5767 20.0008 46.912 20.2908 46.912 20.7983C46.912 21.2968 46.5767 21.5913 45.9423 21.5913Z" fill="#909192"/>
<path d="M48.3741 22.5927V21.4146H50.0144V21.1291H48.3741V20.0008H50.2138V19.7108H48.0388V22.8828H50.2818V22.5927H48.3741Z" fill="#909192"/>
<path d="M53.3901 19.7108V22.2846L51.3464 19.7108H51.07V22.8828H51.4053V20.3089L53.4445 22.8828H53.7209V19.7108H53.3901Z" fill="#909192"/>
<path d="M56.1337 22.9099C56.6005 22.9099 57.0173 22.7513 57.2983 22.4432L57.0853 22.2302C56.827 22.4976 56.5098 22.6109 56.1473 22.6109C55.3815 22.6109 54.806 22.049 54.806 21.2968C54.806 20.5446 55.3815 19.9827 56.1473 19.9827C56.5098 19.9827 56.827 20.0959 57.0853 20.3588L57.2983 20.1458C57.0173 19.8377 56.6005 19.6836 56.1383 19.6836C55.1821 19.6836 54.4752 20.3678 54.4752 21.2968C54.4752 22.2257 55.1821 22.9099 56.1337 22.9099Z" fill="#909192"/>
<path d="M60.3031 19.7108H59.9677L58.8802 21.4916L57.7927 19.7108H57.4347L58.7035 21.7862V22.8828H59.0343V21.7862L60.3031 19.7108Z" fill="#909192"/>
</svg>
