<svg width="35" height="36" viewBox="0 0 35 36" fill="none" xmlns="http://www.w3.org/2000/svg">
<g clip-path="url(#clip0_2352_49017)">
<path d="M17.5 35.5684C27.1646 35.5684 34.9993 27.7337 34.9993 18.0691C34.9993 8.40451 27.1646 0.569824 17.5 0.569824C7.83542 0.569824 0.000732422 8.40451 0.000732422 18.0691C0.000732422 27.7337 7.83542 35.5684 17.5 35.5684Z" fill="#F3F2F2"/>
<path d="M12.9585 21.4258L14.2975 13.5188H16.4654L15.1265 21.4258H12.9585Z" fill="#293688"/>
<path d="M22.8443 13.7232C22.4146 13.563 21.7415 13.3914 20.901 13.3914C18.7584 13.3914 17.2492 14.464 17.2362 16.0008C17.2243 17.1367 18.3135 17.7703 19.1364 18.1489C19.9802 18.5357 20.264 18.7839 20.2599 19.1296C20.2547 19.6595 19.5857 19.9018 18.9624 19.9018C18.0947 19.9015 17.6336 19.7819 16.9215 19.4868L16.6421 19.3608L16.3376 21.1309C16.8442 21.3517 17.7808 21.5432 18.7531 21.5529C21.0319 21.5524 22.5118 20.493 22.5284 18.8514C22.5367 17.952 21.9589 17.2675 20.7081 16.703C19.9501 16.3377 19.4859 16.0937 19.4909 15.723C19.4909 15.3944 19.8841 15.043 20.7327 15.043C21.4417 15.0319 21.9553 15.1856 22.3557 15.3458L22.5497 15.437L22.8443 13.7232Z" fill="#293688"/>
<path d="M26.5405 13.5188C26.0211 13.5188 25.6458 13.6774 25.4176 14.1922L22.2046 21.4261H24.4999L24.9462 20.2144H27.6886L27.9434 21.4261H29.984L28.1987 13.519H26.5406L26.5405 13.5188ZM25.5552 18.6323C25.7343 18.1769 26.4187 16.4223 26.4187 16.4223C26.4063 16.443 26.5969 15.9647 26.7063 15.6679L26.853 16.3493C26.853 16.3493 27.2678 18.2368 27.3548 18.6325H25.5552V18.6323Z" fill="#293688"/>
<path d="M9.00511 18.9389L8.81415 17.855C8.41848 16.5914 7.1905 15.2242 5.81445 14.5392L7.72987 21.4258H10.0257L13.4689 13.5188H11.1735L9.00511 18.9389Z" fill="#293688"/>
<path d="M3.45776 13.519V13.6467C6.1781 14.301 8.06671 15.9551 8.8144 17.8553L8.02831 14.1938C7.89709 13.6935 7.49943 13.5365 7.02888 13.5191L3.45776 13.519Z" fill="#F7981D"/>
<path d="M17.4989 35.5682C24.2531 35.5682 30.1095 31.7396 33.0266 26.1362H1.97144C4.88872 31.7396 10.7449 35.5682 17.4989 35.5682Z" fill="#F7981D"/>
<path d="M17.4988 0.568359C10.8518 0.568359 5.07048 4.27424 2.10815 9.73286H32.8901C29.9274 4.27454 24.1458 0.568359 17.4988 0.568359Z" fill="#293688"/>
</g>
<defs>
<clipPath id="clip0_2352_49017">
<rect width="35" height="35" fill="white" transform="translate(0 0.568359)"/>
</clipPath>
</defs>
</svg>
