<svg width="72" height="71" viewBox="0 0 72 71" fill="none" xmlns="http://www.w3.org/2000/svg">
<path d="M71.03 70.5C62.78 70.5 54.52 70.5 46.27 70.5C46.27 65.72 46.27 60.94 46.27 56.09C43.5 56.09 40.8 56.09 38.04 56.09C38.04 49.87 38.04 43.73 38.04 37.59C36.65 37.59 35.32 37.59 33.92 37.59C33.92 45.83 33.92 54.02 33.92 62.27C33.56 62.27 33.27 62.27 32.98 62.27C22.61 62.27 12.25 62.27 1.87999 62.27C1.57999 62.27 1.28999 62.29 0.98999 62.3C0.99999 44.42 0.99999 26.55 0.99999 8.67C11.98 8.67 22.95 8.67 33.98 8.67C33.98 16.97 33.98 25.16 33.98 33.39C35.36 33.39 36.69 33.39 38.09 33.39C38.09 27.21 38.09 21.07 38.09 14.84C40.85 14.84 43.55 14.84 46.31 14.84C46.31 10 46.31 5.25 46.31 0.5C54.58 0.5 62.77 0.5 70.99 0.5C70.99 11.48 70.99 22.43 70.99 33.38C62.73 33.38 54.52 33.38 46.24 33.38C46.24 28.58 46.24 23.82 46.24 19.07C44.86 19.07 43.55 19.07 42.22 19.07C42.22 30.03 42.22 40.96 42.22 51.89C43.58 51.89 44.9 51.89 46.28 51.89C46.28 47.1 46.28 42.35 46.28 37.57C54.56 37.57 62.77 37.57 71.04 37.57C71.03 48.58 71.03 59.54 71.03 70.5ZM5.12999 25.07C13.41 25.07 21.62 25.07 29.82 25.07C29.82 20.95 29.82 16.89 29.82 12.83C21.56 12.83 13.35 12.83 5.12999 12.83C5.12999 16.92 5.12999 20.97 5.12999 25.07ZM5.12999 41.59C13.4 41.59 21.61 41.59 29.82 41.59C29.82 37.48 29.82 33.41 29.82 29.34C21.57 29.34 13.36 29.34 5.12999 29.34C5.12999 33.44 5.12999 37.49 5.12999 41.59ZM5.15999 45.75C5.15999 49.86 5.15999 53.95 5.15999 58.05C13.41 58.05 21.6 58.05 29.81 58.05C29.81 53.93 29.81 49.85 29.81 45.75C21.57 45.75 13.4 45.75 5.15999 45.75ZM50.42 4.6C50.42 6.44 50.42 8.22 50.42 10C55.94 10 61.42 10 66.89 10C66.89 8.17 66.89 6.4 66.89 4.6C61.4 4.6 55.94 4.6 50.42 4.6ZM50.43 23.87C50.43 25.72 50.43 27.51 50.43 29.29C55.94 29.29 61.4 29.29 66.89 29.29C66.89 27.47 66.89 25.68 66.89 23.87C61.39 23.87 55.93 23.87 50.43 23.87ZM50.41 47.08C55.94 47.08 61.41 47.08 66.88 47.08C66.88 45.24 66.88 43.46 66.88 41.68C61.37 41.68 55.9 41.68 50.41 41.68C50.41 43.48 50.41 45.25 50.41 47.08ZM66.9 60.96C61.37 60.96 55.89 60.96 50.43 60.96C50.43 62.8 50.43 64.58 50.43 66.36C55.95 66.36 61.41 66.36 66.9 66.36C66.9 64.55 66.9 62.78 66.9 60.96ZM50.4 19.63C55.93 19.63 61.41 19.63 66.89 19.63C66.89 17.81 66.89 16.04 66.89 14.27C61.37 14.27 55.9 14.27 50.4 14.27C50.4 16.07 50.4 17.82 50.4 19.63ZM50.4 56.69C55.94 56.69 61.41 56.69 66.89 56.69C66.89 54.87 66.89 53.1 66.89 51.34C61.37 51.34 55.9 51.34 50.4 51.34C50.4 53.14 50.4 54.89 50.4 56.69Z" fill="#4D4E50"/>
<path d="M21.71 16.92C23.06 16.92 24.37 16.92 25.72 16.92C25.72 18.28 25.72 19.61 25.72 20.99C24.39 20.99 23.07 20.99 21.71 20.99C21.71 19.66 21.71 18.33 21.71 16.92Z" fill="#4D4E50"/>
<path d="M21.71 33.33C23.06 33.33 24.37 33.33 25.72 33.33C25.72 34.69 25.72 36.02 25.72 37.4C24.39 37.4 23.07 37.4 21.71 37.4C21.71 36.07 21.71 34.74 21.71 33.33Z" fill="#4D4E50"/>
<path d="M25.7 53.96C24.37 53.96 23.05 53.96 21.7 53.96C21.7 52.61 21.7 51.27 21.7 49.9C23.02 49.9 24.33 49.9 25.7 49.9C25.7 51.23 25.7 52.58 25.7 53.96Z" fill="#4D4E50"/>
</svg>
