<svg width="20" height="21" viewBox="0 0 20 21" fill="none" xmlns="http://www.w3.org/2000/svg">
<path d="M17.5 10.0684C17.5 11.5517 17.0601 13.0018 16.236 14.2351C15.4119 15.4685 14.2406 16.4298 12.8701 16.9975C11.4997 17.5651 9.99168 17.7136 8.53683 17.4242C7.08197 17.1349 5.7456 16.4206 4.6967 15.3717C3.64781 14.3228 2.9335 12.9864 2.64411 11.5315C2.35472 10.0767 2.50325 8.56868 3.07091 7.19823C3.63856 5.82779 4.59986 4.65645 5.83323 3.83234C7.0666 3.00823 8.51664 2.56836 10 2.56836C11.9891 2.56836 13.8968 3.35854 15.3033 4.76506C16.7098 6.17158 17.5 8.07924 17.5 10.0684V10.0684ZM10 2.56836C8.61667 2.56836 7.5 5.90169 7.5 10.0684C7.5 14.235 8.61667 17.5684 10 17.5684C11.3833 17.5684 12.5 14.235 12.5 10.0684C12.5 5.90169 11.3833 2.56836 10 2.56836Z" stroke="white" stroke-width="1.5" stroke-linecap="round" stroke-linejoin="round"/>
<path d="M16 14.5685C14.942 13.6799 13.6738 13.0774 12.3167 12.8185C10.7903 12.4843 9.20971 12.4843 7.68333 12.8185C6.32617 13.0774 5.05804 13.6799 4 14.5685" stroke="white" stroke-width="1.5" stroke-linecap="round" stroke-linejoin="round"/>
<path d="M16 5.56836C14.942 6.45689 13.6738 7.0594 12.3167 7.31836C11.5562 7.48786 10.7791 7.57172 10 7.56836C9.22087 7.57172 8.44381 7.48786 7.68333 7.31836C6.32617 7.0594 5.05804 6.45689 4 5.56836" stroke="white" stroke-width="1.5" stroke-linecap="round" stroke-linejoin="round"/>
</svg>
