<svg width="111" height="34" viewBox="0 0 111 34" fill="none" xmlns="http://www.w3.org/2000/svg">
<path d="M28.371 7.54227L15.9582 0.350784C15.3061 -0.025782 14.5024 -0.025782 13.8503 0.350784L1.44201 7.54227C0.789908 7.91883 0.390381 8.61226 0.390381 9.3654V23.7713C0.390381 24.5199 0.789908 25.2133 1.44201 25.5899L13.8503 32.7859C14.5024 33.1625 15.3061 33.1625 15.9582 32.7859L28.3664 25.5899C29.014 25.2133 29.4135 24.5199 29.4135 23.7713V9.3654C29.4181 8.61226 29.0185 7.91883 28.371 7.54227ZM13.2671 30.9031L2.06196 24.4877C1.85072 24.3637 1.71754 24.1387 1.71754 23.8907V9.95321C1.71754 9.4251 2.29617 9.09445 2.7508 9.3608L13.7631 15.8589C13.9697 15.9828 14.0983 16.2033 14.1029 16.4375L14.2912 30.2969C14.3003 30.8296 13.7263 31.1695 13.2671 30.9031ZM27.6592 24.3362L16.5827 30.8985C16.1235 31.1695 15.5494 30.8388 15.5494 30.3107V27.6334C15.5494 27.3854 15.6826 27.1604 15.8939 27.041L27.1633 20.5567C27.6225 20.295 27.944 20.6302 27.9394 21.1583L27.9991 23.753C27.9945 23.9963 27.8659 24.2168 27.6592 24.3362ZM27.6592 18.7382L16.5827 25.3005C16.1235 25.5715 15.5494 25.2408 15.5494 24.7127V22.0354C15.5494 21.7875 15.6826 21.5624 15.8939 21.443L27.1633 14.9588C27.6225 14.697 27.944 15.0322 27.9394 15.5604L27.9991 18.155C27.9945 18.3938 27.8659 18.6188 27.6592 18.7382ZM27.6592 13.1402L16.5827 19.698C16.1235 19.9689 15.5494 19.6383 15.5494 19.1102V16.4329C15.5494 16.1895 15.6826 15.9599 15.8939 15.8405L27.1633 9.35621C27.6225 9.09445 27.944 9.42969 27.9394 9.9578L27.9991 12.557C27.9945 12.7958 27.8659 13.0162 27.6592 13.1402Z" fill="white"/>
<path d="M22.8281 14.4995L16.6698 17.985C16.5688 18.0401 16.4448 17.9712 16.4448 17.8518V17.1263C16.4448 17.0711 16.4724 17.0206 16.5229 16.9931L22.6811 13.5075C22.7821 13.4524 22.9061 13.5213 22.9061 13.6407V14.3663C22.9015 14.4214 22.874 14.4719 22.8281 14.4995Z" fill="#F7421E"/>
<path d="M24.8808 13.3928L24.417 13.6362C24.2655 13.7189 24.0818 13.6086 24.0818 13.4341V12.8785C24.0818 12.7958 24.1277 12.7177 24.2012 12.6764L24.665 12.433C24.8165 12.3504 25.0002 12.4606 25.0002 12.6351V13.1907C25.0048 13.278 24.9543 13.3561 24.8808 13.3928Z" fill="white"/>
<path d="M6.30062 16.8645L4.04582 15.6338C3.94479 15.5787 3.8208 15.6475 3.8208 15.7669V16.4925C3.8208 16.5476 3.84835 16.5981 3.89887 16.6257L6.15367 17.8564C6.2547 17.9115 6.37869 17.8426 6.37869 17.7232V16.9977C6.3741 16.9426 6.34655 16.892 6.30062 16.8645Z" fill="white"/>
<path d="M6.30062 18.7519L4.04582 17.5212C3.94479 17.4661 3.8208 17.535 3.8208 17.6544V18.38C3.8208 18.4351 3.84835 18.4856 3.89887 18.5131L6.15367 19.7439C6.2547 19.799 6.37869 19.7301 6.37869 19.6107V18.8851C6.3741 18.83 6.34655 18.7795 6.30062 18.7519Z" fill="white"/>
<path d="M6.30062 20.644L4.04582 19.4133C3.94479 19.3582 3.8208 19.4271 3.8208 19.5465V20.2721C3.8208 20.3272 3.84835 20.3777 3.89887 20.4052L6.15367 21.636C6.2547 21.6911 6.37869 21.6222 6.37869 21.5028V20.7772C6.3741 20.7175 6.34655 20.667 6.30062 20.644Z" fill="white"/>
<path d="M6.30062 22.5315L4.04582 21.3008C3.94479 21.2457 3.8208 21.3145 3.8208 21.4339V22.1595C3.8208 22.2146 3.84835 22.2651 3.89887 22.2927L6.15367 23.5234C6.2547 23.5785 6.37869 23.5096 6.37869 23.3902V22.6601C6.3741 22.605 6.34655 22.5544 6.30062 22.5315Z" fill="white"/>
<path d="M6.30062 24.4189L4.04582 23.1882C3.94479 23.1331 3.8208 23.202 3.8208 23.3214V24.047C3.8208 24.1021 3.84835 24.1526 3.89887 24.1801L6.15367 25.4109C6.2547 25.466 6.37869 25.3971 6.37869 25.2777V24.5521C6.3741 24.497 6.34655 24.4465 6.30062 24.4189Z" fill="white"/>
<path d="M11.2877 19.7209L9.03288 18.4902C8.93185 18.4351 8.80786 18.504 8.80786 18.6234V19.349C8.80786 19.4041 8.83541 19.4546 8.88593 19.4821L11.1407 20.7129C11.2418 20.768 11.3658 20.6991 11.3658 20.5797V19.8541C11.3658 19.799 11.3336 19.7485 11.2877 19.7209Z" fill="white"/>
<path d="M11.2877 21.6084L9.03288 20.3777C8.93185 20.3226 8.80786 20.3914 8.80786 20.5108V21.2364C8.80786 21.2915 8.83541 21.342 8.88593 21.3696L11.1407 22.6003C11.2418 22.6554 11.3658 22.5865 11.3658 22.4671V21.7416C11.3658 21.6865 11.3336 21.6359 11.2877 21.6084Z" fill="white"/>
<path d="M11.2877 23.4956L9.03288 22.2649C8.93185 22.2098 8.80786 22.2787 8.80786 22.398V23.1236C8.80786 23.1787 8.83541 23.2292 8.88593 23.2568L11.1407 24.4875C11.2418 24.5426 11.3658 24.4738 11.3658 24.3544V23.6288C11.3658 23.5737 11.3336 23.5232 11.2877 23.4956Z" fill="white"/>
<path d="M11.2877 25.3833L9.03288 24.1526C8.93185 24.0975 8.80786 24.1663 8.80786 24.2857V25.0113C8.80786 25.0664 8.83541 25.1169 8.88593 25.1445L11.1407 26.3752C11.2418 26.4303 11.3658 26.3614 11.3658 26.242V25.5165C11.3658 25.4614 11.3336 25.4108 11.2877 25.3833Z" fill="white"/>
<path d="M11.2877 27.2705L9.03288 26.0398C8.93185 25.9847 8.80786 26.0536 8.80786 26.1729V26.8985C8.80786 26.9536 8.83541 27.0042 8.88593 27.0317L11.1407 28.2624C11.2418 28.3175 11.3658 28.2487 11.3658 28.1293V27.4037C11.3658 27.3486 11.3336 27.2981 11.2877 27.2705Z" fill="white"/>
<path d="M22.8281 20.0976L16.6698 23.5831C16.5688 23.6383 16.4448 23.5694 16.4448 23.45V22.7244C16.4448 22.6693 16.4724 22.6188 16.5229 22.5912L22.6811 19.1057C22.7821 19.0506 22.9061 19.1195 22.9061 19.2389V19.9644C22.9015 20.0196 22.874 20.0701 22.8281 20.0976Z" fill="white"/>
<path d="M24.8808 18.9907L24.417 19.2341C24.2655 19.3168 24.0818 19.2065 24.0818 19.032V18.4764C24.0818 18.3937 24.1277 18.3156 24.2012 18.2743L24.665 18.0309C24.8165 17.9483 25.0002 18.0585 25.0002 18.233V18.7886C25.0048 18.8759 24.9543 18.9494 24.8808 18.9907Z" fill="#F7421E"/>
<path d="M22.8281 25.9113L16.6698 29.3969C16.5688 29.452 16.4448 29.3831 16.4448 29.2637V28.5381C16.4448 28.483 16.4724 28.4325 16.5229 28.4049L22.6811 24.9194C22.7821 24.8643 22.9061 24.9332 22.9061 25.0526V25.7782C22.9015 25.8333 22.874 25.8838 22.8281 25.9113Z" fill="#F7421E"/>
<path d="M24.8808 24.8047L24.417 25.0481C24.2655 25.1307 24.0818 25.0205 24.0818 24.846V24.2903C24.0818 24.2077 24.1277 24.1296 24.2012 24.0883L24.665 23.8449C24.8165 23.7622 25.0002 23.8724 25.0002 24.0469V24.6026C25.0048 24.6899 24.9543 24.7679 24.8808 24.8047Z" fill="white"/>
<path d="M39.4136 8.37573H42.4353V14.7773H49.1721V8.37573H52.1938V24.3981H49.1721V17.6429H42.4353V24.4027H39.4136V8.37573Z" fill="white"/>
<path d="M60.2486 13.0781C61.0981 13.0781 61.8788 13.2251 62.586 13.5144C63.2932 13.8037 63.904 14.2078 64.4229 14.7222C64.9373 15.2365 65.3414 15.8519 65.6307 16.5682C65.92 17.2846 66.067 18.0653 66.067 18.9195C66.067 19.7691 65.92 20.5543 65.6307 21.2707C65.3414 21.9871 64.9373 22.6025 64.4229 23.1168C63.9086 23.6311 63.2978 24.0353 62.586 24.3246C61.8788 24.6139 61.0981 24.7608 60.2486 24.7608C59.399 24.7608 58.6183 24.6139 57.9111 24.3246C57.2039 24.0353 56.5931 23.6311 56.0742 23.1168C55.5599 22.6025 55.1558 21.9871 54.8664 21.2707C54.5771 20.5543 54.4302 19.7736 54.4302 18.9195C54.4302 18.0699 54.5771 17.2846 54.8664 16.5682C55.1558 15.8519 55.5599 15.2365 56.0742 14.7222C56.5885 14.2078 57.1993 13.8037 57.9111 13.5144C58.6183 13.2205 59.399 13.0781 60.2486 13.0781ZM60.2486 22.0514C60.6205 22.0514 60.9833 21.9825 61.3323 21.8402C61.6814 21.6978 61.9936 21.4911 62.26 21.2248C62.5263 20.9584 62.7422 20.6278 62.8983 20.2421C63.0544 19.8563 63.1325 19.4154 63.1325 18.9241C63.1325 18.4327 63.0544 17.9918 62.8983 17.6061C62.7422 17.2203 62.5309 16.8897 62.26 16.6234C61.9936 16.357 61.6814 16.1503 61.3323 16.008C60.9833 15.8656 60.6205 15.7967 60.2486 15.7967C59.8582 15.7967 59.4954 15.8656 59.151 16.008C58.8066 16.1503 58.5035 16.357 58.2326 16.6234C57.9662 16.8897 57.7504 17.2203 57.5942 17.6061C57.4381 17.9964 57.36 18.4327 57.36 18.9241C57.36 19.4154 57.4381 19.8563 57.5942 20.2421C57.7504 20.6324 57.9616 20.9584 58.2326 21.2248C58.4989 21.4911 58.8066 21.6978 59.151 21.8402C59.4954 21.9779 59.8582 22.0514 60.2486 22.0514Z" fill="white"/>
<path d="M72.1749 24.7563C71.4585 24.7563 70.8202 24.669 70.26 24.4899C69.6997 24.3108 69.2175 24.0766 68.8042 23.7873C68.3955 23.498 68.0465 23.1628 67.7618 22.7816C67.477 22.4005 67.2612 22.0193 67.1143 21.629L69.7319 20.5085C69.9844 21.0733 70.3243 21.4958 70.7513 21.7713C71.1784 22.0469 71.6514 22.1846 72.1703 22.1846C72.7076 22.1846 73.1347 22.0882 73.447 21.8953C73.7593 21.7024 73.9154 21.4682 73.9154 21.2019C73.9154 20.9034 73.7822 20.66 73.5251 20.4763C73.2633 20.288 72.8133 20.1227 72.1703 19.9712L70.6273 19.6359C70.2829 19.5624 69.9293 19.443 69.5619 19.2777C69.1946 19.1124 68.8639 18.9058 68.5654 18.6532C68.2669 18.4006 68.0189 18.0929 67.8261 17.7347C67.6332 17.3765 67.5368 16.9586 67.5368 16.481C67.5368 15.9437 67.6516 15.4661 67.8858 15.0483C68.1154 14.6304 68.4322 14.2768 68.8364 13.9874C69.2405 13.6981 69.7135 13.4731 70.2554 13.317C70.8018 13.1608 71.3851 13.0828 72.0142 13.0828C73.0567 13.0828 73.9889 13.2894 74.8109 13.6981C75.6329 14.1068 76.2345 14.7589 76.6248 15.6544L74.0945 16.6831C73.8833 16.2514 73.5802 15.9392 73.176 15.7417C72.7719 15.5488 72.3724 15.4524 71.9683 15.4524C71.5504 15.4524 71.183 15.5396 70.8707 15.7095C70.5585 15.8795 70.4023 16.0999 70.4023 16.3708C70.4023 16.6234 70.5309 16.8255 70.7927 16.977C71.0544 17.1285 71.408 17.2617 71.8581 17.3811L73.5342 17.7852C74.6548 18.0516 75.486 18.4833 76.0278 19.0711C76.5743 19.6589 76.8453 20.3569 76.8453 21.1651C76.8453 21.6427 76.7351 22.0974 76.51 22.529C76.285 22.9607 75.9681 23.3465 75.5594 23.6817C75.1507 24.0169 74.6548 24.2833 74.0807 24.4762C73.5159 24.6599 72.8775 24.7563 72.1749 24.7563Z" fill="white"/>
<path d="M79.7384 15.9393H77.8142V13.4319H79.7384V10.0796H82.6682V13.4365H85.3547V15.9439H82.6682V20.3249C82.6682 20.5867 82.6958 20.8301 82.7463 21.0505C82.7968 21.2755 82.8978 21.4638 83.0494 21.6154C83.256 21.8633 83.5545 21.9827 83.9449 21.9827C84.1975 21.9827 84.3995 21.9552 84.5511 21.9047C84.698 21.8542 84.8404 21.7807 84.9781 21.6934L85.8048 24.2651C85.4603 24.4304 85.0929 24.5544 84.698 24.6325C84.3031 24.7151 83.8668 24.7565 83.3892 24.7565C82.8381 24.7565 82.3422 24.6692 81.9013 24.4947C81.4605 24.3202 81.0931 24.0814 80.7946 23.7737C80.092 23.0895 79.743 22.1159 79.743 20.8484V15.9393H79.7384Z" fill="white"/>
<path d="M92.5828 13.0781C93.4324 13.0781 94.2131 13.2251 94.9203 13.5144C95.6275 13.8037 96.2382 14.2078 96.7572 14.7222C97.2715 15.2365 97.6756 15.8519 97.9649 16.5682C98.2542 17.2846 98.4012 18.0653 98.4012 18.9195C98.4012 19.7691 98.2542 20.5543 97.9649 21.2707C97.6756 21.9871 97.2715 22.6025 96.7572 23.1168C96.2428 23.6311 95.6321 24.0353 94.9203 24.3246C94.2131 24.6139 93.4324 24.7608 92.5828 24.7608C91.7332 24.7608 90.9525 24.6139 90.2453 24.3246C89.5381 24.0353 88.9274 23.6311 88.4084 23.1168C87.8941 22.6025 87.49 21.9871 87.2007 21.2707C86.9114 20.5543 86.7644 19.7736 86.7644 18.9195C86.7644 18.0699 86.9114 17.2846 87.2007 16.5682C87.49 15.8519 87.8941 15.2365 88.4084 14.7222C88.9228 14.2078 89.5335 13.8037 90.2453 13.5144C90.9571 13.2251 91.7332 13.0781 92.5828 13.0781ZM92.5828 22.0514C92.9548 22.0514 93.3176 21.9825 93.6666 21.8402C94.0156 21.6978 94.3279 21.4911 94.5942 21.2248C94.8606 20.9584 95.0764 20.6278 95.2325 20.2421C95.3887 19.8563 95.4667 19.4154 95.4667 18.9241C95.4667 18.4327 95.3887 17.9918 95.2325 17.6061C95.0764 17.2203 94.8652 16.8897 94.5942 16.6234C94.3279 16.357 94.0156 16.1503 93.6666 16.008C93.3176 15.8656 92.9548 15.7967 92.5828 15.7967C92.1925 15.7967 91.8297 15.8656 91.4852 16.008C91.1408 16.1503 90.8377 16.357 90.5668 16.6234C90.3004 16.8897 90.0846 17.2203 89.9285 17.6061C89.7723 17.9964 89.6943 18.4327 89.6943 18.9241C89.6943 19.4154 89.7723 19.8563 89.9285 20.2421C90.0846 20.6324 90.2959 20.9584 90.5668 21.2248C90.8331 21.4911 91.1408 21.6978 91.4852 21.8402C91.8297 21.9779 92.1971 22.0514 92.5828 22.0514Z" fill="white"/>
<path d="M102.81 14.8691H102.989C103.333 14.318 103.793 13.8818 104.376 13.5603C104.959 13.2389 105.62 13.0781 106.369 13.0781C107.053 13.0781 107.659 13.1883 108.183 13.4134C108.706 13.6384 109.133 13.9552 109.469 14.364C109.804 14.7727 110.056 15.2686 110.231 15.8427C110.401 16.4167 110.488 17.055 110.488 17.7576V24.4026H107.558V18.1112C107.558 17.3214 107.384 16.7336 107.035 16.3524C106.686 15.9713 106.171 15.783 105.501 15.783C105.097 15.783 104.743 15.8702 104.44 16.0401C104.132 16.21 103.875 16.4443 103.655 16.7336C103.439 17.0229 103.274 17.3673 103.163 17.7622C103.053 18.1572 102.994 18.5797 102.994 19.0251V24.3935H100.064V13.4363H102.814V14.8691H102.81Z" fill="white"/>
</svg>
