<svg width="111" height="33" viewBox="0 0 111 33" fill="none" xmlns="http://www.w3.org/2000/svg">
<path d="M28.371 7.47391L15.9582 0.282424C15.3061 -0.0941414 14.5024 -0.0941414 13.8503 0.282424L1.44201 7.47391C0.789908 7.85047 0.390381 8.54391 0.390381 9.29704V23.703C0.390381 24.4515 0.789908 25.1449 1.44201 25.5215L13.8503 32.7176C14.5024 33.0941 15.3061 33.0941 15.9582 32.7176L28.3664 25.5215C29.014 25.1449 29.4135 24.4515 29.4135 23.703V9.29704C29.4181 8.54391 29.0185 7.85047 28.371 7.47391ZM13.2671 30.8348L2.06196 24.4194C1.85072 24.2954 1.71754 24.0703 1.71754 23.8224V9.88485C1.71754 9.35674 2.29617 9.02609 2.7508 9.29244L13.7631 15.7905C13.9697 15.9145 14.0983 16.1349 14.1029 16.3691L14.2912 30.2286C14.3003 30.7613 13.7263 31.1011 13.2671 30.8348ZM27.6592 24.2678L16.5827 30.8302C16.1235 31.1011 15.5494 30.7705 15.5494 30.2423V27.5651C15.5494 27.3171 15.6826 27.0921 15.8939 26.9727L27.1633 20.4884C27.6225 20.2266 27.944 20.5619 27.9394 21.09L27.9991 23.6846C27.9945 23.928 27.8659 24.1484 27.6592 24.2678ZM27.6592 18.6698L16.5827 25.2322C16.1235 25.5031 15.5494 25.1725 15.5494 24.6444V21.9671C15.5494 21.7191 15.6826 21.4941 15.8939 21.3747L27.1633 14.8904C27.6225 14.6287 27.944 14.9639 27.9394 15.492L27.9991 18.0866C27.9945 18.3254 27.8659 18.5504 27.6592 18.6698ZM27.6592 13.0719L16.5827 19.6296C16.1235 19.9006 15.5494 19.5699 15.5494 19.0418V16.3645C15.5494 16.1211 15.6826 15.8915 15.8939 15.7721L27.1633 9.28785C27.6225 9.02609 27.944 9.36133 27.9394 9.88944L27.9991 12.4887C27.9945 12.7275 27.8659 12.9479 27.6592 13.0719Z" fill="#202124"/>
<path d="M22.8282 14.4311L16.6699 17.9166C16.5689 17.9718 16.4449 17.9029 16.4449 17.7835V17.0579C16.4449 17.0028 16.4725 16.9523 16.523 16.9247L22.6812 13.4392C22.7822 13.3841 22.9062 13.453 22.9062 13.5724V14.2979C22.9016 14.353 22.8741 14.4036 22.8282 14.4311Z" fill="#F7421E"/>
<path d="M24.8809 13.3242L24.4171 13.5676C24.2655 13.6503 24.0818 13.54 24.0818 13.3655V12.8099C24.0818 12.7272 24.1278 12.6491 24.2012 12.6078L24.6651 12.3644C24.8166 12.2818 25.0003 12.392 25.0003 12.5665V13.1221C25.0049 13.2094 24.9544 13.2875 24.8809 13.3242Z" fill="#202124"/>
<path d="M6.30062 16.7964L4.04582 15.5657C3.94479 15.5105 3.8208 15.5794 3.8208 15.6988V16.4244C3.8208 16.4795 3.84835 16.53 3.89887 16.5576L6.15367 17.7883C6.2547 17.8434 6.37869 17.7745 6.37869 17.6551V16.9296C6.3741 16.8744 6.34655 16.8239 6.30062 16.7964Z" fill="#202124"/>
<path d="M6.30062 18.6836L4.04582 17.4529C3.94479 17.3978 3.8208 17.4666 3.8208 17.586V18.3116C3.8208 18.3667 3.84835 18.4172 3.89887 18.4448L6.15367 19.6755C6.2547 19.7306 6.37869 19.6617 6.37869 19.5423V18.8168C6.3741 18.7617 6.34655 18.7111 6.30062 18.6836Z" fill="#202124"/>
<path d="M6.30062 20.5757L4.04582 19.345C3.94479 19.2898 3.8208 19.3587 3.8208 19.4781V20.2037C3.8208 20.2588 3.84835 20.3093 3.89887 20.3369L6.15367 21.5676C6.2547 21.6227 6.37869 21.5538 6.37869 21.4344V20.7089C6.3741 20.6492 6.34655 20.5986 6.30062 20.5757Z" fill="#202124"/>
<path d="M6.30062 22.4629L4.04582 21.2322C3.94479 21.1771 3.8208 21.2459 3.8208 21.3653V22.0909C3.8208 22.146 3.84835 22.1965 3.89887 22.2241L6.15367 23.4548C6.2547 23.5099 6.37869 23.441 6.37869 23.3216V22.5915C6.3741 22.5364 6.34655 22.4858 6.30062 22.4629Z" fill="#202124"/>
<path d="M6.30062 24.3506L4.04582 23.1199C3.94479 23.0647 3.8208 23.1336 3.8208 23.253V23.9786C3.8208 24.0337 3.84835 24.0842 3.89887 24.1118L6.15367 25.3425C6.2547 25.3976 6.37869 25.3287 6.37869 25.2093V24.4838C6.3741 24.4286 6.34655 24.3781 6.30062 24.3506Z" fill="#202124"/>
<path d="M11.2877 19.6523L9.03288 18.4216C8.93185 18.3665 8.80786 18.4354 8.80786 18.5548V19.2804C8.80786 19.3355 8.83541 19.386 8.88593 19.4135L11.1407 20.6443C11.2418 20.6994 11.3658 20.6305 11.3658 20.5111V19.7855C11.3658 19.7304 11.3336 19.6799 11.2877 19.6523Z" fill="#202124"/>
<path d="M11.2877 21.54L9.03288 20.3093C8.93185 20.2542 8.80786 20.3231 8.80786 20.4425V21.1681C8.80786 21.2232 8.83541 21.2737 8.88593 21.3012L11.1407 22.532C11.2418 22.5871 11.3658 22.5182 11.3658 22.3988V21.6732C11.3658 21.6181 11.3336 21.5676 11.2877 21.54Z" fill="#202124"/>
<path d="M11.2877 23.4272L9.03288 22.1965C8.93185 22.1414 8.80786 22.2103 8.80786 22.3297V23.0553C8.80786 23.1104 8.83541 23.1609 8.88593 23.1884L11.1407 24.4192C11.2418 24.4743 11.3658 24.4054 11.3658 24.286V23.5604C11.3658 23.5053 11.3336 23.4548 11.2877 23.4272Z" fill="#202124"/>
<path d="M11.2877 25.3149L9.03288 24.0842C8.93185 24.0291 8.80786 24.098 8.80786 24.2174V24.943C8.80786 24.9981 8.83541 25.0486 8.88593 25.0761L11.1407 26.3069C11.2418 26.362 11.3658 26.2931 11.3658 26.1737V25.4481C11.3658 25.393 11.3336 25.3425 11.2877 25.3149Z" fill="#202124"/>
<path d="M11.2877 27.2021L9.03288 25.9714C8.93185 25.9163 8.80786 25.9852 8.80786 26.1046V26.8302C8.80786 26.8853 8.83541 26.9358 8.88593 26.9633L11.1407 28.1941C11.2418 28.2492 11.3658 28.1803 11.3658 28.0609V27.3353C11.3658 27.2802 11.3336 27.2297 11.2877 27.2021Z" fill="#202124"/>
<path d="M22.8282 20.0293L16.6699 23.5148C16.5689 23.5699 16.4449 23.501 16.4449 23.3816V22.656C16.4449 22.6009 16.4725 22.5504 16.523 22.5229L22.6812 19.0373C22.7822 18.9822 22.9062 19.0511 22.9062 19.1705V19.8961C22.9016 19.9512 22.8741 20.0017 22.8282 20.0293Z" fill="#202124"/>
<path d="M24.8809 18.9223L24.4171 19.1657C24.2655 19.2484 24.0818 19.1382 24.0818 18.9637V18.408C24.0818 18.3254 24.1278 18.2473 24.2012 18.206L24.6651 17.9626C24.8166 17.8799 25.0003 17.9901 25.0003 18.1646V18.7203C25.0049 18.8075 24.9544 18.881 24.8809 18.9223Z" fill="#F7421E"/>
<path d="M22.8282 25.8427L16.6699 29.3283C16.5689 29.3834 16.4449 29.3145 16.4449 29.1951V28.4695C16.4449 28.4144 16.4725 28.3639 16.523 28.3363L22.6812 24.8508C22.7822 24.7957 22.9062 24.8646 22.9062 24.984V25.7096C22.9016 25.7647 22.8741 25.8152 22.8282 25.8427Z" fill="#F7421E"/>
<path d="M24.8809 24.7363L24.4171 24.9797C24.2655 25.0624 24.0818 24.9521 24.0818 24.7776V24.222C24.0818 24.1393 24.1278 24.0613 24.2012 24.0199L24.6651 23.7765C24.8166 23.6939 25.0003 23.8041 25.0003 23.9786V24.5343C25.0049 24.6215 24.9544 24.6996 24.8809 24.7363Z" fill="#202124"/>
<path d="M39.4136 8.30762H42.4353V14.7092H49.1721V8.30762H52.1938V24.33H49.1721V17.5748H42.4353V24.3346H39.4136V8.30762Z" fill="#202124"/>
<path d="M60.2486 13.0103C61.0981 13.0103 61.8788 13.1572 62.586 13.4465C63.2932 13.7358 63.904 14.14 64.4229 14.6543C64.9373 15.1686 65.3414 15.784 65.6307 16.5004C65.92 17.2168 66.067 17.9975 66.067 18.8516C66.067 19.7012 65.92 20.4865 65.6307 21.2028C65.3414 21.9192 64.9373 22.5346 64.4229 23.0489C63.9086 23.5633 63.2978 23.9674 62.586 24.2567C61.8788 24.546 61.0981 24.693 60.2486 24.693C59.399 24.693 58.6183 24.546 57.9111 24.2567C57.2039 23.9674 56.5931 23.5633 56.0742 23.0489C55.5599 22.5346 55.1558 21.9192 54.8664 21.2028C54.5771 20.4865 54.4302 19.7058 54.4302 18.8516C54.4302 18.002 54.5771 17.2168 54.8664 16.5004C55.1558 15.784 55.5599 15.1686 56.0742 14.6543C56.5885 14.14 57.1993 13.7358 57.9111 13.4465C58.6183 13.1526 59.399 13.0103 60.2486 13.0103ZM60.2486 21.9835C60.6205 21.9835 60.9833 21.9147 61.3323 21.7723C61.6814 21.6299 61.9936 21.4233 62.26 21.1569C62.5263 20.8906 62.7422 20.5599 62.8983 20.1742C63.0544 19.7884 63.1325 19.3476 63.1325 18.8562C63.1325 18.3648 63.0544 17.924 62.8983 17.5382C62.7422 17.1525 62.5309 16.8218 62.26 16.5555C61.9936 16.2891 61.6814 16.0825 61.3323 15.9401C60.9833 15.7978 60.6205 15.7289 60.2486 15.7289C59.8582 15.7289 59.4954 15.7978 59.151 15.9401C58.8066 16.0825 58.5035 16.2891 58.2326 16.5555C57.9662 16.8218 57.7504 17.1525 57.5942 17.5382C57.4381 17.9286 57.36 18.3648 57.36 18.8562C57.36 19.3476 57.4381 19.7884 57.5942 20.1742C57.7504 20.5645 57.9616 20.8906 58.2326 21.1569C58.4989 21.4233 58.8066 21.6299 59.151 21.7723C59.4954 21.9101 59.8582 21.9835 60.2486 21.9835Z" fill="#202124"/>
<path d="M72.1748 24.6882C71.4584 24.6882 70.8201 24.6009 70.2599 24.4218C69.6996 24.2427 69.2174 24.0085 68.8041 23.7192C68.3954 23.4299 68.0464 23.0947 67.7617 22.7135C67.477 22.3323 67.2611 21.9512 67.1142 21.5608L69.7318 20.4403C69.9843 21.0052 70.3242 21.4277 70.7512 21.7032C71.1783 21.9787 71.6513 22.1165 72.1703 22.1165C72.7075 22.1165 73.1346 22.0201 73.4469 21.8272C73.7592 21.6343 73.9153 21.4001 73.9153 21.1338C73.9153 20.8353 73.7821 20.5919 73.525 20.4082C73.2632 20.2199 72.8132 20.0546 72.1703 19.903L70.6273 19.5678C70.2828 19.4943 69.9292 19.3749 69.5618 19.2096C69.1945 19.0443 68.8638 18.8376 68.5653 18.5851C68.2668 18.3325 68.0188 18.0248 67.826 17.6666C67.6331 17.3084 67.5367 16.8905 67.5367 16.4129C67.5367 15.8756 67.6515 15.398 67.8857 14.9801C68.1153 14.5622 68.4321 14.2086 68.8363 13.9193C69.2404 13.63 69.7134 13.405 70.2553 13.2489C70.8018 13.0927 71.385 13.0146 72.0141 13.0146C73.0566 13.0146 73.9888 13.2213 74.8108 13.63C75.6328 14.0387 76.2344 14.6908 76.6247 15.5863L74.0944 16.615C73.8832 16.1833 73.5801 15.871 73.176 15.6736C72.7718 15.4807 72.3723 15.3843 71.9682 15.3843C71.5503 15.3843 71.1829 15.4715 70.8706 15.6414C70.5584 15.8113 70.4022 16.0318 70.4022 16.3027C70.4022 16.5553 70.5308 16.7573 70.7926 16.9089C71.0543 17.0604 71.4079 17.1936 71.858 17.313L73.5342 17.7171C74.6547 17.9835 75.4859 18.4151 76.0277 19.003C76.5742 19.5908 76.8452 20.2888 76.8452 21.097C76.8452 21.5746 76.735 22.0293 76.5099 22.4609C76.2849 22.8926 75.9681 23.2784 75.5593 23.6136C75.1506 23.9488 74.6547 24.2152 74.0806 24.4081C73.5158 24.5917 72.8775 24.6882 72.1748 24.6882Z" fill="#202124"/>
<path d="M79.7383 15.871H77.8142V13.3636H79.7383V10.0112H82.6682V13.3682H85.3547V15.8756H82.6682V20.2566C82.6682 20.5183 82.6957 20.7617 82.7463 20.9821C82.7968 21.2072 82.8978 21.3954 83.0493 21.547C83.256 21.795 83.5545 21.9144 83.9448 21.9144C84.1974 21.9144 84.3995 21.8868 84.551 21.8363C84.698 21.7858 84.8403 21.7123 84.9781 21.6251L85.8047 24.1967C85.4603 24.3621 85.0929 24.486 84.698 24.5641C84.303 24.6468 83.8668 24.6881 83.3892 24.6881C82.8381 24.6881 82.3421 24.6008 81.9013 24.4263C81.4604 24.2518 81.093 24.013 80.7945 23.7054C80.0919 23.0211 79.7429 22.0476 79.7429 20.7801V15.871H79.7383Z" fill="#202124"/>
<path d="M92.5829 13.0103C93.4324 13.0103 94.2131 13.1572 94.9203 13.4465C95.6275 13.7358 96.2383 14.14 96.7572 14.6543C97.2716 15.1686 97.6757 15.784 97.965 16.5004C98.2543 17.2168 98.4013 17.9975 98.4013 18.8516C98.4013 19.7012 98.2543 20.4865 97.965 21.2028C97.6757 21.9192 97.2716 22.5346 96.7572 23.0489C96.2429 23.5633 95.6321 23.9674 94.9203 24.2567C94.2131 24.546 93.4324 24.693 92.5829 24.693C91.7333 24.693 90.9526 24.546 90.2454 24.2567C89.5382 23.9674 88.9274 23.5633 88.4085 23.0489C87.8942 22.5346 87.4901 21.9192 87.2007 21.2028C86.9114 20.4865 86.7645 19.7058 86.7645 18.8516C86.7645 18.002 86.9114 17.2168 87.2007 16.5004C87.4901 15.784 87.8942 15.1686 88.4085 14.6543C88.9228 14.14 89.5336 13.7358 90.2454 13.4465C90.9572 13.1572 91.7333 13.0103 92.5829 13.0103ZM92.5829 21.9835C92.9549 21.9835 93.3176 21.9147 93.6667 21.7723C94.0157 21.6299 94.3279 21.4233 94.5943 21.1569C94.8606 20.8906 95.0765 20.5599 95.2326 20.1742C95.3888 19.7884 95.4668 19.3476 95.4668 18.8562C95.4668 18.3648 95.3888 17.924 95.2326 17.5382C95.0765 17.1525 94.8652 16.8218 94.5943 16.5555C94.3279 16.2891 94.0157 16.0825 93.6667 15.9401C93.3176 15.7978 92.9549 15.7289 92.5829 15.7289C92.1925 15.7289 91.8297 15.7978 91.4853 15.9401C91.1409 16.0825 90.8378 16.2891 90.5669 16.5555C90.3005 16.8218 90.0847 17.1525 89.9285 17.5382C89.7724 17.9286 89.6943 18.3648 89.6943 18.8562C89.6943 19.3476 89.7724 19.7884 89.9285 20.1742C90.0847 20.5645 90.2959 20.8906 90.5669 21.1569C90.8332 21.4233 91.1409 21.6299 91.4853 21.7723C91.8297 21.9101 92.1971 21.9835 92.5829 21.9835Z" fill="#202124"/>
<path d="M102.81 14.8012H102.989C103.333 14.2502 103.793 13.8139 104.376 13.4924C104.959 13.171 105.62 13.0103 106.369 13.0103C107.053 13.0103 107.659 13.1205 108.183 13.3455C108.706 13.5705 109.133 13.8874 109.469 14.2961C109.804 14.7048 110.056 15.2008 110.231 15.7748C110.401 16.3488 110.488 16.9872 110.488 17.6898V24.3348H107.558V18.0434C107.558 17.2535 107.384 16.6657 107.035 16.2845C106.686 15.9034 106.171 15.7151 105.501 15.7151C105.097 15.7151 104.743 15.8023 104.44 15.9723C104.132 16.1422 103.875 16.3764 103.655 16.6657C103.439 16.955 103.274 17.2994 103.163 17.6944C103.053 18.0893 102.994 18.5118 102.994 18.9572V24.3256H100.064V13.3685H102.814V14.8012H102.81Z" fill="#202124"/>
</svg>
